<svg width="133" height="86" viewBox="0 0 133 86" fill="none" xmlns="http://www.w3.org/2000/svg">
<g clip-path="url(#clip0_6_181)">
<path d="M106.544 83.5806C106.544 84.9018 105.461 85.9828 104.138 85.9828H22.6738C10.1594 85.9828 0 75.8591 0 63.3503H104.138C105.461 63.3503 106.544 64.4314 106.544 65.7526V83.5806Z" fill="#FF0000"/>
<path d="M119.781 51.9054C119.781 53.2266 118.698 54.3077 117.374 54.3077H35.893C23.3786 54.3077 13.2192 44.1839 13.2192 31.6752H117.357C118.681 31.6752 119.764 32.7562 119.764 34.0774V51.9054H119.781Z" fill="#FF0000"/>
<path d="M133 20.2302C133 21.5515 131.917 22.6325 130.593 22.6325H49.1123C36.5978 22.6325 26.4385 12.5088 26.4385 0H130.576C131.9 0 132.983 1.08101 132.983 2.40223V20.2302H133Z" fill="#FF0000"/>
</g>
<defs>
<clipPath id="clip0_6_181">
<rect width="133" height="86" fill="white"/>
</clipPath>
</defs>
</svg>
