<svg xmlns="http://www.w3.org/2000/svg" viewBox="0 0 171.95 116.59"><defs><style>.a{fill:#656564;}.b,.c{fill:#00394f;}.b{stroke:#00394f;stroke-miterlimit:10;}.d{fill:#666665;}</style></defs><path class="a" d="M144.51,70V95.62s-10-3.37-10-12.84S144.51,70,144.51,70Z" transform="translate(-35.49 -43.99)"/><path class="b" d="M144.51,44.62V60.18s-11.23,3.71-27.61,25.07A126.14,126.14,0,0,0,102.18,69v13.8c0,8.24-12.89,12.83-12.89,12.83v-51S103.7,48,116.9,65.79C130.09,48,144.51,44.62,144.51,44.62Z" transform="translate(-35.49 -43.99)"/><path class="c" d="M35.49,118.4h3.17l4.5,6.79,4.49-6.79H50.8v16.38H47.65V123.57l-3.56,5.27H42.31l-3.63-5.27v11.21H35.49Z" transform="translate(-35.49 -43.99)"/><path class="c" d="M60.64,118.31H63.7l6.64,16.47H67L65.42,131H58.87l-1.53,3.79H54Zm3.76,9.89-2.26-5.68-2.28,5.68Z" transform="translate(-35.49 -43.99)"/><path class="c" d="M73.51,118.4h2.73l7.82,10.48V118.4h3.1v16.38H84.52l-7.89-10.53v10.53H73.51Z" transform="translate(-35.49 -43.99)"/><path class="c" d="M97,118.31h3.06l6.65,16.47h-3.39L101.78,131H95.22l-1.53,3.79H90.35Zm3.77,9.89-2.26-5.68-2.28,5.68Z" transform="translate(-35.49 -43.99)"/><path class="c" d="M108.23,126.59a8.58,8.58,0,0,1,13-7.27v3.32a7.83,7.83,0,0,0-4.44-1.41,5.1,5.1,0,0,0-5.34,5.43,5,5,0,0,0,5,5.33,4.43,4.43,0,0,0,3.13-1.07v-5.64h3.19v7.23a8.62,8.62,0,0,1-6.32,2.59A8.16,8.16,0,0,1,108.23,126.59Z" transform="translate(-35.49 -43.99)"/><path class="c" d="M126.86,118.4h11.39v3h-8.2v3.16h6.6v3h-6.6v4.21h8.44v3H126.86Z" transform="translate(-35.49 -43.99)"/><path class="c" d="M142.15,118.4h3.17l4.49,6.79,4.5-6.79h3.15v16.38h-3.15V123.57l-3.57,5.27H149l-3.63-5.27v11.21h-3.19Z" transform="translate(-35.49 -43.99)"/><path class="c" d="M162,118.4h11.39v3h-8.2v3.16h6.6v3h-6.6v4.21h8.44v3H162Z" transform="translate(-35.49 -43.99)"/><path class="c" d="M177.29,118.4H180l7.82,10.48V118.4h3.11v16.38H188.3l-7.89-10.53v10.53h-3.12Z" transform="translate(-35.49 -43.99)"/><path class="c" d="M207.44,118.4v3h-4.92v13.36h-3.19V121.42h-4.89v-3Z" transform="translate(-35.49 -43.99)"/><path class="d" d="M77.61,154a3.65,3.65,0,0,1,3.7-3.76,4.08,4.08,0,0,1,2.11.55v.71a3.91,3.91,0,0,0-2-.59,3.09,3.09,0,0,0,0,6.17,3.55,3.55,0,0,0,2.15-.67v.71a4,4,0,0,1-2.25.63A3.64,3.64,0,0,1,77.61,154Z" transform="translate(-35.49 -43.99)"/><path class="d" d="M85.86,154a3.73,3.73,0,1,1,3.72,3.74A3.67,3.67,0,0,1,85.86,154Zm6.72,0a3,3,0,1,0-3,3.07A3,3,0,0,0,92.58,154Z" transform="translate(-35.49 -43.99)"/><path class="d" d="M96.13,157.52v-7.15h.72v1.23a3.78,3.78,0,0,1,3-1.41c1.82,0,2.71,1.11,2.71,3v4.35h-.72v-4.2c0-2.1-1.3-2.44-2.21-2.44a3.52,3.52,0,0,0-2.73,1.63v5Z" transform="translate(-35.49 -43.99)"/><path class="d" d="M105.1,156.94v-.78A5.23,5.23,0,0,0,108,157c1.33,0,2.2-.51,2.2-1.38s-1-1.14-2.37-1.48-2.49-.76-2.49-2,.94-1.94,2.71-1.94a5,5,0,0,1,2.53.66v.75a4.75,4.75,0,0,0-2.49-.74c-1.42,0-2,.56-2,1.27,0,.92,1,1.16,2.13,1.43,1.35.33,2.74.68,2.74,2.11s-1.3,2-2.91,2A5.49,5.49,0,0,1,105.1,156.94Z" transform="translate(-35.49 -43.99)"/><path class="d" d="M120,150.37v7.15h-.72V156.3a3.81,3.81,0,0,1-2.95,1.4c-1.82,0-2.71-1.1-2.71-3v-4.35h.72v4.2c0,2.12,1.28,2.44,2.2,2.44a3.53,3.53,0,0,0,2.74-1.63v-5Z" transform="translate(-35.49 -43.99)"/><path class="d" d="M123.39,156v-9h.71v8.82c0,.76.36,1.14,1,1.14a1.38,1.38,0,0,0,.73-.21v.7a1.86,1.86,0,0,1-1,.21C124.21,157.7,123.39,157.36,123.39,156Z" transform="translate(-35.49 -43.99)"/><path class="d" d="M129.11,155.62V151h-1.77v-.66h1.77v-2.29h.72v2.29h2.57V151h-2.57v4.4c0,1.18.38,1.57,1.3,1.57a2.44,2.44,0,0,0,1.17-.33v.7a2.69,2.69,0,0,1-1.36.33C129.65,157.7,129.11,156.87,129.11,155.62Z" transform="translate(-35.49 -43.99)"/><path class="d" d="M135.71,147.25a.6.6,0,1,1-.59.6A.59.59,0,0,1,135.71,147.25Zm-.35,3.12h.71v7.15h-.71Z" transform="translate(-35.49 -43.99)"/><path class="d" d="M139.61,157.52v-7.15h.72v1.23a3.79,3.79,0,0,1,3-1.41c1.81,0,2.7,1.11,2.7,3v4.35h-.71v-4.2c0-2.1-1.31-2.44-2.21-2.44a3.52,3.52,0,0,0-2.74,1.63v5Z" transform="translate(-35.49 -43.99)"/><path class="d" d="M155.82,150.37v6.82c0,2.28-1.65,3.39-3.71,3.39a5.92,5.92,0,0,1-2.69-.68v-.73a5.18,5.18,0,0,0,2.64.73c1.73,0,3.05-.81,3.05-2.71v-.95a3.41,3.41,0,0,1-2.86,1.39,3.72,3.72,0,0,1,0-7.44,3.4,3.4,0,0,1,2.86,1.41v-1.23Zm-.71,2.23a3,3,0,0,0-2.71-1.74,3,3,0,1,0,2.71,4.37Z" transform="translate(-35.49 -43.99)"/></svg>