<svg width="554" height="530" xmlns="http://www.w3.org/2000/svg" xmlns:xlink="http://www.w3.org/1999/xlink"><svg width="394" height="152" fill="none" viewBox="-2 -2 394 152" xmlns="http://www.w3.org/2000/svg"><path d="M172.349 0H247l-52.349 74H120l52.349-74z" fill="#F54D2E"/><path d="M194.349 74H269l-52.349 74H142l52.349-74z" fill="#2B3D4F"/><path d="M99.2 144.499h.5v-35h20.6v-24.2H99.7V3.5H70.565l-.15.181-69.8 84.2-.115.139v21.48h70.2v35h28.5zm63.025-7.7l.002.002c9.425 7.001 20.398 10.498 32.898 10.498 18.55 0 33.299-7.202 44.197-21.596 11.009-14.231 16.503-31.475 16.503-51.704 0-20.228-5.494-37.472-16.503-51.704C228.424 7.901 213.675.7 195.125.7c-12.233 0-23.136 3.43-32.692 10.294l-.002.002c-9.411 6.856-16.532 15.93-21.366 27.207v.002c-4.563 10.736-6.84 22.67-6.84 35.795 0 13.26 2.344 25.329 7.041 36.199l.002.004c4.833 10.875 11.819 19.744 20.957 26.597zm55.279-30.47l-.001.002c-5.518 8.67-12.966 12.968-22.378 12.968-9.277 0-16.795-4.296-22.582-12.974-5.67-8.837-8.518-19.604-8.518-32.326 0-12.86 2.85-23.557 8.517-32.124l.004-.006c5.653-8.808 13.17-13.17 22.579-13.17s16.857 4.361 22.376 13.166h0l.007.01c5.667 8.567 8.517 19.265 8.517 32.124 0 12.724-2.849 23.493-8.521 32.33zm150.837 38.17h.5v-35h20.6v-24.2h-20.6V3.5h-29.135l-.15.181-69.8 84.2-.115.139v21.48h70.2v35h28.5zM70.7 85.299H33.875L70.7 41.57V85.3zm269.141 0h-36.826l36.826-43.73V85.3z" stroke="#2B3D4F"/><mask id="a" maskUnits="userSpaceOnUse" x="142" y="74" width="127" height="74"><path d="M194.349 74H269l-52.349 74H142l52.349-74z" fill="#2B3D4F"/></mask><g mask="url(#a)"><path d="M99.2 144.499h.5v-35h20.6v-24.2H99.7V3.5H70.565l-.15.181-69.8 84.2-.115.139v21.48h70.2v35h28.5zm63.025-7.7l.002.002c9.425 7.001 20.398 10.498 32.898 10.498 18.55 0 33.299-7.202 44.197-21.596 11.009-14.231 16.503-31.475 16.503-51.704 0-20.228-5.494-37.472-16.503-51.704C228.424 7.901 213.675.7 195.125.7c-12.233 0-23.136 3.43-32.692 10.294l-.002.002c-9.411 6.856-16.532 15.93-21.366 27.207v.002c-4.563 10.736-6.84 22.67-6.84 35.795 0 13.26 2.344 25.329 7.041 36.199l.002.004c4.833 10.875 11.819 19.744 20.957 26.597zm55.279-30.47l-.001.002c-5.518 8.67-12.966 12.968-22.378 12.968-9.277 0-16.795-4.296-22.582-12.974-5.67-8.837-8.518-19.604-8.518-32.326 0-12.86 2.85-23.557 8.517-32.124l.004-.006c5.653-8.808 13.17-13.17 22.579-13.17s16.857 4.361 22.376 13.166h0l.007.01c5.667 8.567 8.517 19.265 8.517 32.124 0 12.724-2.849 23.493-8.521 32.33zm150.837 38.17h.5v-35h20.6v-24.2h-20.6V3.5h-29.135l-.15.181-69.8 84.2-.115.139v21.48h70.2v35h28.5zM70.7 85.299H33.875L70.7 41.57V85.3zm269.141 0h-36.826l36.826-43.73V85.3z" stroke="#fff"/></g></svg><svg width="290" height="113" fill="none" viewBox="-2 -2 290 113" y="152" xmlns="http://www.w3.org/2000/svg"><g clip-path="url(#abclip0)"><path d="M126.389 0h54.744l-38.389 54.267H88L126.389 0z" fill="#F54D2E"/><path d="M142.523 54.267h54.744l-38.39 54.266h-54.744l38.39-54.266z" fill="#2B3D4F"/><path d="M72.747 105.966h.366V80.299H88.22V62.553H73.113V2.566H51.748l-.11.133L.45 64.445l-.084.102V80.3h51.48v25.667h20.9zm46.218-5.647l.001.002c6.912 5.134 14.959 7.698 24.126 7.698 13.603 0 24.419-5.281 32.411-15.837 8.073-10.436 12.102-23.082 12.102-37.916 0-14.834-4.029-27.48-12.102-37.916C167.511 5.794 156.695.513 143.092.513c-8.971 0-16.967 2.515-23.974 7.549l-.002.001c-6.901 5.028-12.123 11.682-15.668 19.952v.001c-3.347 7.873-5.016 16.625-5.016 26.25 0 9.724 1.719 18.574 5.163 26.546l.002.003c3.544 7.975 8.667 14.479 15.368 19.504zm40.538-22.344l-.001.001c-4.046 6.358-9.508 9.51-16.41 9.51-6.803 0-12.317-3.15-16.56-9.514-4.158-6.48-6.247-14.376-6.247-23.706 0-9.43 2.09-17.275 6.246-23.558l.003-.004c4.145-6.46 9.658-9.658 16.558-9.658s12.361 3.198 16.409 9.655v0l.005.007c4.156 6.283 6.246 14.128 6.246 23.558 0 9.331-2.09 17.228-6.249 23.709zm110.614 27.991h.366V80.299h15.107V62.553h-15.107V2.566h-21.365l-.11.133-51.187 61.746-.084.102V80.3h51.48v25.667h20.9zM51.847 62.553H24.84l27.006-32.069v32.069zm197.37 0h-27.006l27.006-32.069v32.069z" stroke="#2B3D4F"/><mask id="b" maskUnits="userSpaceOnUse" x="104" y="54" width="94" height="55"><path d="M142.523 54.267h54.744l-38.39 54.266h-54.744l38.39-54.266z" fill="#2B3D4F"/></mask><g mask="url(#b)"><path d="M72.747 105.966h.366V80.299H88.22V62.553H73.113V2.566H51.748l-.11.133L.45 64.445l-.084.102V80.3h51.48v25.667h20.9zm46.218-5.647l.001.002c6.912 5.134 14.959 7.698 24.126 7.698 13.603 0 24.419-5.281 32.411-15.837 8.073-10.436 12.102-23.082 12.102-37.916 0-14.834-4.029-27.48-12.102-37.916C167.511 5.794 156.695.513 143.092.513c-8.971 0-16.967 2.515-23.974 7.549l-.002.001c-6.901 5.028-12.123 11.682-15.668 19.952v.001c-3.347 7.873-5.016 16.625-5.016 26.25 0 9.724 1.719 18.574 5.163 26.546l.002.003c3.544 7.975 8.667 14.479 15.368 19.504zm40.538-22.344l-.001.001c-4.046 6.358-9.508 9.51-16.41 9.51-6.803 0-12.317-3.15-16.56-9.514-4.158-6.48-6.247-14.376-6.247-23.706 0-9.43 2.09-17.275 6.246-23.558l.003-.004c4.145-6.46 9.658-9.658 16.558-9.658s12.361 3.198 16.409 9.655v0l.005.007c4.156 6.283 6.246 14.128 6.246 23.558 0 9.331-2.09 17.228-6.249 23.709zm110.614 27.991h.366V80.299h15.107V62.553h-15.107V2.566h-21.365l-.11.133-51.187 61.746-.084.102V80.3h51.48v25.667h20.9zM51.847 62.553H24.84l27.006-32.069v32.069zm197.37 0h-27.006l27.006-32.069v32.069z" stroke="#fff"/></g></g><defs><clipPath id="abclip0"><path fill="#fff" d="M0 0h286v108.533H0z"/></clipPath></defs></svg><svg width="22" height="26" fill="none" viewBox="-2 -2 22 26" y="478" xmlns="http://www.w3.org/2000/svg"><path d="M9 1v17.733m7-6.065l-7 7-7-7" stroke="#2B3D4F" stroke-width="2" stroke-linecap="square"/></svg><svg width="28" height="28" fill="none" stroke="#000" stroke-width="2" stroke-linecap="round" stroke-linejoin="round" class="adfeather adfeather-chevron-down" viewBox="-2 -2 28 28" x="522" y="312" xmlns="http://www.w3.org/2000/svg"><path d="M6 9l6 6 6-6"/></svg><svg width="28" height="28" fill="none" stroke="gray" stroke-width="2" stroke-linecap="round" stroke-linejoin="round" class="aefeather aefeather-chevron-down" viewBox="-2 -2 28 28" x="361" y="328" xmlns="http://www.w3.org/2000/svg"><path d="M6 9l6 6 6-6"/></svg><svg width="28" height="28" fill="none" stroke="#fff" stroke-width="2" stroke-linecap="round" stroke-linejoin="round" class="affeather affeather-chevron-down" viewBox="-2 -2 28 28" x="180" y="414" xmlns="http://www.w3.org/2000/svg"><path d="M6 9l6 6 6-6"/></svg><svg width="18" height="13" fill="none" viewBox="-2 -2 18 13" x="529" y="158" xmlns="http://www.w3.org/2000/svg"><path d="M1 1l6 6 6-6" stroke="#2B3D4F" stroke-width="2"/></svg><svg width="12" height="9" fill="none" viewBox="-2 -2 12 9" x="542" y="245" xmlns="http://www.w3.org/2000/svg"><path d="M1 1l3 3 3-3" stroke="#2B3D4F"/></svg><svg width="28" height="28" fill="none" stroke="#000" stroke-width="2" stroke-linecap="round" stroke-linejoin="round" class="aifeather aifeather-chevron-left" viewBox="-2 -2 28 28" x="208" y="414" xmlns="http://www.w3.org/2000/svg"><path d="M15 18l-6-6 6-6"/></svg><svg width="28" height="28" fill="none" stroke="gray" stroke-width="2" stroke-linecap="round" stroke-linejoin="round" class="ajfeather ajfeather-chevron-left" viewBox="-2 -2 28 28" x="236" y="414" xmlns="http://www.w3.org/2000/svg"><path d="M15 18l-6-6 6-6"/></svg><svg width="28" height="28" fill="none" stroke="#fff" stroke-width="2" stroke-linecap="round" stroke-linejoin="round" class="akfeather akfeather-chevron-left" viewBox="-2 -2 28 28" x="264" y="414" xmlns="http://www.w3.org/2000/svg"><path d="M15 18l-6-6 6-6"/></svg><svg width="26" height="22" fill="none" viewBox="-2 -2 26 22" x="394" y="348" xmlns="http://www.w3.org/2000/svg"><path d="M1 9h17.733m-6.066-7l7 7-7 7" stroke="#F54D2E" stroke-width="2" stroke-linecap="square"/></svg><svg width="28" height="28" fill="none" stroke="#000" stroke-width="2" stroke-linecap="round" stroke-linejoin="round" class="amfeather amfeather-chevron-right" viewBox="-2 -2 28 28" x="292" y="414" xmlns="http://www.w3.org/2000/svg"><path d="M9 18l6-6-6-6"/></svg><svg width="28" height="28" fill="none" stroke="gray" stroke-width="2" stroke-linecap="round" stroke-linejoin="round" class="anfeather anfeather-chevron-right" viewBox="-2 -2 28 28" x="320" y="414" xmlns="http://www.w3.org/2000/svg"><path d="M9 18l6-6-6-6"/></svg><svg width="28" height="28" fill="none" stroke="#fff" stroke-width="2" stroke-linecap="round" stroke-linejoin="round" class="aofeather aofeather-chevron-right" viewBox="-2 -2 28 28" x="348" y="414" xmlns="http://www.w3.org/2000/svg"><path d="M9 18l6-6-6-6"/></svg><svg width="28" height="28" fill="none" stroke="#000" stroke-width="2" stroke-linecap="round" stroke-linejoin="round" class="apfeather apfeather-chevron-up" viewBox="-2 -2 28 28" x="376" y="414" xmlns="http://www.w3.org/2000/svg"><path d="M18 15l-6-6-6 6"/></svg><svg width="28" height="28" fill="none" stroke="gray" stroke-width="2" stroke-linecap="round" stroke-linejoin="round" class="aqfeather aqfeather-chevron-up" viewBox="-2 -2 28 28" x="404" y="414" xmlns="http://www.w3.org/2000/svg"><path d="M18 15l-6-6-6 6"/></svg><svg width="28" height="28" fill="none" stroke="#fff" stroke-width="2" stroke-linecap="round" stroke-linejoin="round" class="arfeather arfeather-chevron-up" viewBox="-2 -2 28 28" x="432" y="414" xmlns="http://www.w3.org/2000/svg"><path d="M18 15l-6-6-6 6"/></svg><svg width="26" height="22" fill="none" viewBox="-2 -2 26 22" x="420" y="348" xmlns="http://www.w3.org/2000/svg"><path d="M20.666 9H2.933M9 16L2 9l7-7" stroke="#2B3D4F" stroke-width="2" stroke-linecap="square"/></svg><svg width="26" height="22" fill="none" viewBox="-2 -2 26 22" x="446" y="348" xmlns="http://www.w3.org/2000/svg"><path d="M20.666 9H2.933M9 16L2 9l7-7" stroke="#fff" stroke-width="2" stroke-linecap="square"/></svg><svg width="22" height="26" fill="none" viewBox="-2 -2 22 26" x="22" y="478" xmlns="http://www.w3.org/2000/svg"><path d="M9 1.667V19.4m7-6.067l-7 7-7-7" stroke="#2B3D4F" stroke-width="2" stroke-linecap="square"/></svg><svg width="22" height="26" fill="none" viewBox="-2 -2 22 26" x="44" y="478" xmlns="http://www.w3.org/2000/svg"><path d="M9 1.667V19.4m7-6.067l-7 7-7-7" stroke="#fff" stroke-width="2" stroke-linecap="square"/></svg><svg width="26" height="22" fill="none" viewBox="-2 -2 26 22" x="472" y="348" xmlns="http://www.w3.org/2000/svg"><path d="M1 9h17.733m-6.066-7l7 7-7 7" stroke="#2B3D4F" stroke-width="2" stroke-linecap="square"/></svg><svg width="26" height="22" fill="none" viewBox="-2 -2 26 22" x="498" y="348" xmlns="http://www.w3.org/2000/svg"><path d="M1 9h17.733m-6.065-7l7 7-7 7" stroke="#2B3D4F" stroke-width="2" stroke-linecap="square"/></svg><svg width="26" height="22" fill="none" viewBox="-2 -2 26 22" x="524" y="348" xmlns="http://www.w3.org/2000/svg"><path d="M1 9h17.733m-6.065-7l7 7-7 7" stroke="#F54D2E" stroke-width="2" stroke-linecap="square"/></svg><svg width="26" height="22" fill="none" viewBox="-2 -2 26 22" x="306" y="450" xmlns="http://www.w3.org/2000/svg"><path d="M1 9h17.733m-6.065-7l7 7-7 7" stroke="#fff" stroke-width="2" stroke-linecap="square"/></svg><svg width="26" height="22" fill="none" viewBox="-2 -2 26 22" x="332" y="450" xmlns="http://www.w3.org/2000/svg"><path d="M1 9h17.733m-6.066-7l7 7-7 7" stroke="#fff" stroke-width="2" stroke-linecap="square"/></svg><svg width="18" height="13" fill="none" viewBox="-2 -2 18 13" x="488" y="245" xmlns="http://www.w3.org/2000/svg"><path d="M1 1l6 6 6-6" stroke="#2B3D4F" stroke-width="2"/></svg><svg width="26" height="26" fill="none" viewBox="-2 -2 26 26" x="66" y="478" xmlns="http://www.w3.org/2000/svg"><path d="M20.21 14.89A10 10 0 117 1.83" stroke="#2B3D4F" stroke-width="2" stroke-linecap="round" stroke-linejoin="round"/><path clip-rule="evenodd" d="M21 11A10 10 0 0011 1v10h10z" stroke="#2B3D4F" stroke-width="2" stroke-linecap="round" stroke-linejoin="round"/></svg><svg width="24" height="28" fill="none" viewBox="-2 -2 24 28" x="460" y="414" xmlns="http://www.w3.org/2000/svg"><path clip-rule="evenodd" d="M19 10c0 7-9 13-9 13s-9-6-9-13a9 9 0 0118 0v0z" stroke="#2B3D4F" stroke-width="2" stroke-linecap="round" stroke-linejoin="round"/><path clip-rule="evenodd" d="M10 13a3 3 0 100-6 3 3 0 000 6z" stroke="#2B3D4F" stroke-width="2" stroke-linecap="round" stroke-linejoin="round"/></svg><svg width="26" height="24" fill="none" viewBox="-2 -2 26 24" x="92" y="478" xmlns="http://www.w3.org/2000/svg"><rect x="1" y="5" width="20" height="14" rx="2" stroke="#2B3D4F" stroke-width="2" stroke-linecap="round" stroke-linejoin="round"/><path d="M15 19V3a2 2 0 00-2-2H9a2 2 0 00-2 2v16" stroke="#2B3D4F" stroke-width="2" stroke-linecap="round" stroke-linejoin="round"/></svg><svg width="19" height="22" fill="none" viewBox="-2 -2 19 22" x="534" y="370" xmlns="http://www.w3.org/2000/svg"><path d="M15 9L0 17.66V.34L15 9z" fill="#2B3D4F"/></svg><svg width="19" height="22" fill="none" viewBox="-2 -2 19 22" x="343" y="478" xmlns="http://www.w3.org/2000/svg"><path d="M15 9L0 17.66V.34L15 9z" fill="#F54D2E"/></svg><svg width="30" height="32" fill="none" viewBox="-2 -2 30 32" x="522" y="280" xmlns="http://www.w3.org/2000/svg"><circle cx="13" cy="13" r="12" fill="#2B3D4F"/><path d="M14.41 20h-2.82v-9.98h2.82V20zm-3.1-12.62c0-.48.16-.88.48-1.2a1.64 1.64 0 011.2-.5c.467 0 .86.167 1.18.5.334.32.5.72.5 1.2 0 .467-.166.867-.5 1.2-.32.32-.713.48-1.18.48-.466 0-.866-.16-1.2-.48a1.671 1.671 0 01-.48-1.2z" fill="#fff"/></svg><svg width="18" height="14" fill="none" viewBox="-2 -2 18 14" x="450" y="260" xmlns="http://www.w3.org/2000/svg"><path d="M1 4l4.5 4.5L13 1" stroke="#86B085" stroke-width="2"/></svg><svg width="260" height="63" fill="none" viewBox="-2 -2 260 63" y="265" xmlns="http://www.w3.org/2000/svg"><path d="M89.314 35.474c-3.98 0-6.843-3.003-6.843-7.123 0-4.05 2.933-7.122 6.843-7.122 3.911 0 6.844 3.072 6.844 7.122 0 4.12-2.863 7.123-6.844 7.123zm6.495-19.832c-2.025-2.304-4.888-3.212-7.682-3.212-8.45 0-15.013 6.983-15.013 15.921 0 3.98 1.396 7.752 3.91 10.684 2.793 3.213 7.123 5.168 11.522 5.168 2.724 0 5.726-1.187 7.263-3.212v2.584h9.078V0h-9.078v15.642zm-33.45-2.584H51.256l-5.168 7.333v-7.333h-9.357v30.586h9.357V24.022h8.52l7.75-10.964zm-44.622-.628c-2.653 0-7.123 1.257-8.659 3.212V0H0v43.575h9.357V24.23c1.048-1.327 3.422-3.072 6.285-3.072 1.536 0 2.933.489 3.771 1.396.768.768 1.466 1.886 1.466 4.889v16.13h9.358v-19.55c.07-7.751-5.587-11.592-12.5-11.592zm103.559.628h-9.357v30.586h9.357V13.058zM118.433 0h9.288l-6.495 9.288h-9.287L118.433 0zm118.852 33.449c0 6.634 3.212 10.754 10.405 10.754 2.653 0 5.865-.629 7.611-1.746v-7.472a10.278 10.278 0 01-4.679 1.118c-3.002 0-4.329-1.257-4.329-4.47V20.6h9.078v-7.542h-9.078V0h-9.008v13.058H231V20.6h6.285v12.85zm-36.172 7.891v-7.542c2.653 1.746 7.472 3.422 12.36 3.422 3.422 0 5.237-.838 5.237-2.514 0-.768-.349-1.397-1.536-1.886-.559-.21-1.117-.419-1.606-.558l-2.235-.559c-1.047-.28-1.885-.489-2.444-.698-6.983-1.886-9.776-4.05-9.776-9.357 0-5.727 5.028-9.288 13.337-9.288 4.54 0 8.38.908 11.313 2.793v7.263c-3.631-2.095-7.262-3.143-10.963-3.143-3.213 0-4.819.768-4.819 2.444 0 1.048.768 1.467 1.676 2.025.699.21 1.886.56 2.584.769l3.212.698c6.564 1.536 9.846 4.33 9.846 9.567 0 2.863-1.187 5.097-3.701 6.843-2.514 1.746-5.726 2.584-9.776 2.584-5.377 0-9.637-.978-12.709-2.863zm-41.899-28.282h-9.078v2.654c-2.025-2.305-4.888-3.213-7.681-3.213-8.45 0-15.014 6.984-15.014 15.922 0 3.98 1.397 7.751 3.91 10.684 2.794 3.212 7.123 5.168 11.523 5.168 2.723 0 5.726-1.188 7.262-3.213v1.467c0 6.354-4.469 7.751-9.078 7.751-3.98 0-7.612-.978-10.824-2.863v8.24c2.933 1.746 6.774 2.584 11.662 2.584 8.31 0 17.039-5.028 17.248-15.712V13.058h.07zm-15.502 22.416c-3.981 0-6.844-3.003-6.844-7.123 0-4.05 2.933-7.123 6.844-7.123 3.91 0 6.843 3.073 6.843 7.123 0 4.12-2.863 7.123-6.843 7.123zm52.932-7.053c0-8.589-5.657-15.991-15.503-15.991-10.335 0-16.969 7.123-16.969 15.921 0 9.916 8.24 15.922 18.087 15.922 5.027 0 9.427-.978 12.08-2.863v-7.612c-2.863 1.816-6.494 3.143-10.405 3.143-5.516 0-9.287-2.026-10.265-6.285h23.045V28.42h-.07zm-22.975-3.212c.35-3.073 2.933-5.377 7.053-5.377 3.981 0 6.355 2.584 6.495 5.377h-13.548z" fill="#fff"/></svg><svg width="168" height="42" fill="none" viewBox="-2 -2 168 42" y="328" xmlns="http://www.w3.org/2000/svg"><g clip-path="url(#bkclip0)" fill="#fff"><path d="M57.218 22.726c-2.55 0-4.384-1.924-4.384-4.563 0-2.595 1.88-4.563 4.384-4.563 2.506 0 4.384 1.968 4.384 4.563 0 2.639-1.834 4.563-4.384 4.563zm4.16-12.705c-1.297-1.477-3.13-2.058-4.92-2.058-5.413 0-9.618 4.474-9.618 10.2 0 2.55.894 4.965 2.505 6.844 1.79 2.058 4.563 3.31 7.381 3.31 1.745 0 3.669-.76 4.653-2.057v1.655h5.816V0h-5.816v10.02zM39.95 8.367h-7.114l-3.31 4.697V8.367H23.53v19.594h5.995v-12.57h5.457l4.966-7.024zm-28.587-.404c-1.7 0-4.563.805-5.547 2.058V0H0v27.915h5.995V15.523c.67-.85 2.192-1.968 4.026-1.968.984 0 1.879.313 2.415.895.492.492.94 1.207.94 3.131v10.334h5.994V15.389c.045-4.966-3.578-7.426-8.007-7.426zm66.342.404h-5.994v19.594h5.994V8.367zM75.871 0h5.95l-4.16 5.95h-5.95L75.87 0zm76.14 21.428c0 4.25 2.057 6.89 6.665 6.89 1.7 0 3.758-.403 4.876-1.119v-4.787a6.584 6.584 0 01-2.997.716c-1.923 0-2.774-.805-2.774-2.863v-7.068h5.816V8.366h-5.816V0h-5.77v8.366h-4.027v4.83h4.027v8.232zm-23.171 5.055v-4.831c1.699 1.118 4.787 2.192 7.918 2.192 2.192 0 3.355-.537 3.355-1.61 0-.493-.224-.895-.984-1.209a14.4 14.4 0 00-1.029-.357l-1.432-.358c-.67-.18-1.207-.313-1.565-.448-4.474-1.207-6.263-2.594-6.263-5.994 0-3.668 3.221-5.95 8.544-5.95 2.908 0 5.368.582 7.247 1.79v4.652c-2.326-1.342-4.652-2.013-7.023-2.013-2.058 0-3.087.492-3.087 1.566 0 .67.492.939 1.074 1.297.447.134 1.208.358 1.655.492l2.058.447c4.205.984 6.307 2.774 6.307 6.129 0 1.834-.76 3.266-2.371 4.384-1.61 1.119-3.668 1.655-6.262 1.655-3.445 0-6.174-.626-8.142-1.834zM101.995 8.366H96.18v1.7c-1.298-1.477-3.132-2.058-4.921-2.058-5.413 0-9.618 4.473-9.618 10.2 0 2.55.895 4.965 2.504 6.844 1.79 2.058 4.564 3.31 7.382 3.31 1.745 0 3.669-.76 4.653-2.057v.939c0 4.071-2.863 4.966-5.816 4.966-2.55 0-4.876-.627-6.934-1.834v5.278c1.879 1.119 4.34 1.655 7.47 1.655 5.324 0 10.916-3.22 11.05-10.065V8.366h.045zm-9.93 14.36c-2.551 0-4.385-1.924-4.385-4.563 0-2.595 1.879-4.563 4.384-4.563 2.505 0 4.384 1.968 4.384 4.563 0 2.64-1.834 4.563-4.384 4.563zm33.909-4.516c0-5.503-3.624-10.245-9.931-10.245-6.621 0-10.871 4.563-10.871 10.2 0 6.352 5.279 10.2 11.587 10.2 3.22 0 6.039-.627 7.739-1.835v-4.876c-1.834 1.163-4.161 2.013-6.666 2.013-3.534 0-5.95-1.297-6.576-4.026h14.763v-1.432h-.045zm-14.718-2.059c.224-1.968 1.879-3.444 4.518-3.444 2.551 0 4.071 1.655 4.161 3.444h-8.679z"/></g><defs><clipPath id="bkclip0"><path fill="#fff" d="M0 0h164v37.797H0z"/></clipPath></defs></svg><svg width="24" height="26" fill="none" viewBox="-2 -2 24 26" y="504" xmlns="http://www.w3.org/2000/svg"><path d="M1 16v3a2 2 0 002 2h14a2 2 0 002-2v-3M6 11l4 4 4-4M10 1v14" stroke="#2B3D4F" stroke-width="2" stroke-linecap="round" stroke-linejoin="round"/></svg><svg width="24" height="26" fill="none" viewBox="-2 -2 24 26" x="24" y="504" xmlns="http://www.w3.org/2000/svg"><path d="M1 16v3a2 2 0 002 2h14a2 2 0 002-2v-3M6 11l4 4 4-4M10 1v14" stroke="#F54D2E" stroke-width="2" stroke-linecap="round" stroke-linejoin="round"/></svg><svg width="24" height="26" fill="none" viewBox="-2 -2 24 26" x="48" y="504" xmlns="http://www.w3.org/2000/svg"><path d="M1 16v3a2 2 0 002 2h14a2 2 0 002-2v-3M6 11l4 4 4-4M10 1v14" stroke="#fff" stroke-width="2" stroke-linecap="round" stroke-linejoin="round"/></svg><svg width="23" height="22" fill="none" viewBox="-2 -2 23 22" x="274" y="478" xmlns="http://www.w3.org/2000/svg"><path d="M17.616 11v3.785c0 1.162-.989 2.104-2.208 2.104H3.258c-1.22 0-2.208-.942-2.208-2.104V3.215c0-1.162.989-2.104 2.209-2.104H8m4.883.197h4.733v4.734M8.938 9.986l8.678-8.678" stroke="#2B3D4F" stroke-width="2" stroke-linecap="round" stroke-linejoin="round"/></svg><svg width="23" height="22" fill="none" viewBox="-2 -2 23 22" x="297" y="478" xmlns="http://www.w3.org/2000/svg"><path d="M17.616 11v3.785c0 1.162-.989 2.104-2.208 2.104H3.258c-1.22 0-2.208-.942-2.208-2.104V3.215c0-1.162.989-2.104 2.209-2.104H8m4.883.197h4.733v4.734M8.938 9.986l8.678-8.678" stroke="#F54D2E" stroke-width="2" stroke-linecap="round" stroke-linejoin="round"/></svg><svg width="23" height="22" fill="none" viewBox="-2 -2 23 22" x="320" y="478" xmlns="http://www.w3.org/2000/svg"><path d="M17.616 11v3.785c0 1.162-.989 2.104-2.208 2.104H3.258c-1.22 0-2.208-.942-2.208-2.104V3.215c0-1.162.989-2.104 2.209-2.104H8m4.883.197h4.733v4.734M8.938 9.986l8.678-8.678" stroke="#fff" stroke-width="2" stroke-linecap="round" stroke-linejoin="round"/></svg><svg width="36" height="36" fill="none" viewBox="-2 -2 36 36" x="349" y="152" xmlns="http://www.w3.org/2000/svg"><path d="M0 16C0 7.163 7.163 0 16 0s16 7.163 16 16-7.163 16-16 16S0 24.837 0 16z" fill="#3B5998"/><path d="M17.669 25.408v-8.705h2.402l.319-3h-2.721l.004-1.501c0-.783.074-1.202 1.198-1.202h1.502V8H17.97c-2.887 0-3.903 1.455-3.903 3.902v1.801h-1.8v3h1.8v8.705h3.602z" fill="#fff"/></svg><svg width="44" height="44" fill="none" viewBox="-2 -2 44 44" x="290" y="188" xmlns="http://www.w3.org/2000/svg"><path d="M0 20C0 8.954 8.954 0 20 0s20 8.954 20 20-8.954 20-20 20S0 31.046 0 20z" fill="#2B3D4F"/><path d="M22.085 31.76V20.878h3.004l.398-3.75h-3.402l.005-1.876c0-.978.093-1.502 1.498-1.502h1.878V10h-3.004c-3.609 0-4.879 1.819-4.879 4.878v2.251h-2.249v3.75h2.25v10.88h4.501z" fill="#fff"/></svg><svg width="36" height="36" fill="none" viewBox="-2 -2 36 36" x="210" y="370" xmlns="http://www.w3.org/2000/svg"><path d="M0 16C0 7.163 7.163 0 16 0s16 7.163 16 16-7.163 16-16 16S0 24.837 0 16z" fill="#fff"/><path d="M17.669 25.408v-8.705h2.402l.319-3h-2.721l.004-1.501c0-.783.074-1.202 1.198-1.202h1.502V8H17.97c-2.887 0-3.903 1.455-3.903 3.902v1.801h-1.8v3h1.8v8.705h3.602z" fill="#2B3D4F"/></svg><svg width="36" height="36" fill="none" viewBox="-2 -2 36 36" x="246" y="370" xmlns="http://www.w3.org/2000/svg"><g opacity=".3"><path d="M0 16C0 7.163 7.163 0 16 0s16 7.163 16 16-7.163 16-16 16S0 24.837 0 16z" fill="#fff"/><path d="M17.669 25.408v-8.705h2.402l.319-3h-2.721l.004-1.501c0-.783.074-1.202 1.198-1.202h1.502V8H17.97c-2.887 0-3.903 1.455-3.903 3.902v1.801h-1.8v3h1.8v8.705h3.602z" fill="#2B3D4F"/></g></svg><svg width="25" height="28" fill="none" viewBox="-2 -2 25 28" x="484" y="414" xmlns="http://www.w3.org/2000/svg"><path stroke="#2B3D4F" d="M.5 7.5h20v16H.5zm10 .5v15m-5-15v15m10-15v15m4.5-5H1m19-5H1"/><path fill="#2B3D4F" d="M0 3h21v4H0z"/><path fill="#EDEDED" stroke="#2B3D4F" d="M4.5.5h2v5h-2zm10 0h2v5h-2z"/></svg><svg width="24" height="24" fill="none" viewBox="-2 -2 24 24" x="96" y="504" xmlns="http://www.w3.org/2000/svg"><mask id="c" fill="#fff"><path fill-rule="evenodd" clip-rule="evenodd" d="M17 4v14a2 2 0 01-2 2H5a2 2 0 01-2-2V4"/></mask><path d="M18 4a1 1 0 10-2 0h2zM4 4a1 1 0 00-2 0h2zm12 0v14h2V4h-2zm0 14a1 1 0 01-1 1v2a3 3 0 003-3h-2zm-1 1H5v2h10v-2zM5 19a1 1 0 01-1-1H2a3 3 0 003 3v-2zm-1-1V4H2v14h2z" fill="#2B3D4F" mask="url(#c)"/><path stroke="#2B3D4F" d="M7.5 8v7m5-7v7m1-11.5h-7v-3h7v3zM0 3.5h20"/></svg><svg width="24" height="24" fill="none" viewBox="-2 -2 24 24" x="120" y="504" xmlns="http://www.w3.org/2000/svg"><mask id="d" fill="#fff"><path fill-rule="evenodd" clip-rule="evenodd" d="M17 4v14a2 2 0 01-2 2H5a2 2 0 01-2-2V4"/></mask><path d="M18 4a1 1 0 10-2 0h2zM4 4a1 1 0 00-2 0h2zm12 0v14h2V4h-2zm0 14a1 1 0 01-1 1v2a3 3 0 003-3h-2zm-1 1H5v2h10v-2zM5 19a1 1 0 01-1-1H2a3 3 0 003 3v-2zm-1-1V4H2v14h2z" fill="#F54D2E" mask="url(#d)"/><path stroke="#F54D2E" d="M7.5 8v7m5-7v7m1-11.5h-7v-3h7v3zM0 3.5h20"/></svg><svg width="20" height="20" fill="none" viewBox="-2 -2 20 20" x="406" y="478" xmlns="http://www.w3.org/2000/svg"><path d="M8 1v14M1 8h14" stroke="#9C9FA3" stroke-width="2" stroke-linecap="round" stroke-linejoin="round"/></svg><svg width="20" height="20" fill="none" viewBox="-2 -2 20 20" x="426" y="478" xmlns="http://www.w3.org/2000/svg"><path d="M8 1v14M1 8h14" stroke="#F54D2E" stroke-width="2" stroke-linecap="round" stroke-linejoin="round"/></svg><svg width="28" height="29" fill="none" viewBox="-2 -2 28 29" x="352" y="232" xmlns="http://www.w3.org/2000/svg"><path clip-rule="evenodd" d="M12 23.19c5.523 0 10-4.743 10-10.595C22 6.744 17.523 2 12 2S2 6.744 2 12.595c0 5.852 4.477 10.596 10 10.596z" stroke="#9C9FA3" stroke-width="2" stroke-linecap="round" stroke-linejoin="round"/><path d="M2 12.595h20" stroke="#9C9FA3" stroke-width="2" stroke-linecap="round" stroke-linejoin="round"/><path clip-rule="evenodd" d="M12 2c2.501 2.901 3.923 6.667 4 10.595-.077 3.93-1.499 7.694-4 10.596-2.501-2.902-3.923-6.667-4-10.596C8.077 8.667 9.499 4.901 12 2z" stroke="#9C9FA3" stroke-width="2" stroke-linecap="round" stroke-linejoin="round"/></svg><svg width="28" height="29" fill="none" viewBox="-2 -2 28 29" x="333" y="328" xmlns="http://www.w3.org/2000/svg"><path clip-rule="evenodd" d="M12 23.19c5.523 0 10-4.743 10-10.595C22 6.744 17.523 2 12 2S2 6.744 2 12.595c0 5.852 4.477 10.596 10 10.596z" stroke="#f54d2e" stroke-width="2" stroke-linecap="round" stroke-linejoin="round"/><path d="M2 12.595h20" stroke="#f54d2e" stroke-width="2" stroke-linecap="round" stroke-linejoin="round"/><path clip-rule="evenodd" d="M12 2c2.501 2.901 3.923 6.667 4 10.595-.077 3.93-1.499 7.694-4 10.596-2.501-2.902-3.923-6.667-4-10.596C8.077 8.667 9.499 4.901 12 2z" stroke="#f54d2e" stroke-width="2" stroke-linecap="round" stroke-linejoin="round"/></svg><svg width="44" height="44" fill="none" viewBox="-2 -2 44 44" x="334" y="188" xmlns="http://www.w3.org/2000/svg"><path d="M0 20C0 8.954 8.954 0 20 0s20 8.954 20 20-8.954 20-20 20S0 31.046 0 20z" fill="#2B3D4F"/><mask id="e" maskUnits="userSpaceOnUse" x="0" y="0" width="40" height="40"><path fill-rule="evenodd" clip-rule="evenodd" d="M0 20C0 8.954 8.954 0 20 0s20 8.954 20 20-8.954 20-20 20S0 31.046 0 20z" fill="#fff"/></mask><g mask="url(#e)"><path fill-rule="evenodd" clip-rule="evenodd" d="M20.002 9.334c-2.897 0-3.26.012-4.399.064-1.135.052-1.91.232-2.588.495a5.223 5.223 0 00-1.89 1.23 5.236 5.236 0 00-1.231 1.89c-.265.678-.445 1.454-.496 2.589-.05 1.138-.064 1.501-.064 4.398s.013 3.26.064 4.397c.053 1.136.232 1.911.496 2.59a5.227 5.227 0 001.23 1.889 5.222 5.222 0 001.89 1.231c.678.264 1.453.444 2.588.496 1.138.051 1.502.064 4.398.064 2.898 0 3.26-.013 4.398-.064 1.135-.052 1.911-.232 2.59-.496a5.217 5.217 0 001.888-1.231 5.236 5.236 0 001.231-1.89c.262-.678.442-1.453.496-2.588.051-1.138.064-1.5.064-4.398 0-2.897-.013-3.26-.064-4.398-.054-1.136-.234-1.91-.496-2.589a5.235 5.235 0 00-1.23-1.89 5.214 5.214 0 00-1.89-1.23c-.68-.263-1.455-.443-2.59-.495-1.139-.052-1.5-.064-4.399-.064h.004zm-.957 1.922h.957c2.848 0 3.185.01 4.31.061 1.04.048 1.605.222 1.98.368.498.193.853.424 1.226.798a3.3 3.3 0 01.799 1.226c.146.376.32.94.367 1.98.051 1.125.062 1.462.062 4.31 0 2.846-.011 3.184-.062 4.308-.048 1.04-.221 1.605-.367 1.98a3.298 3.298 0 01-.799 1.226 3.3 3.3 0 01-1.225.797c-.376.147-.94.32-1.98.368-1.125.051-1.463.062-4.311.062s-3.186-.011-4.31-.062c-1.04-.048-1.605-.222-1.981-.368a3.305 3.305 0 01-1.227-.798 3.307 3.307 0 01-.798-1.226c-.146-.375-.32-.94-.367-1.98-.052-1.124-.062-1.462-.062-4.31 0-2.849.01-3.185.062-4.31.047-1.04.221-1.604.367-1.98.193-.498.425-.853.798-1.226a3.31 3.31 0 011.227-.799c.376-.146.94-.32 1.98-.368.985-.044 1.366-.057 3.354-.06v.003zm5.37 3.05a1.28 1.28 0 112.56 0 1.28 1.28 0 01-2.56 0zm-4.413.217a5.478 5.478 0 100 10.956 5.478 5.478 0 000-10.956zM23.556 20a3.556 3.556 0 10-7.111 0 3.556 3.556 0 007.111 0z" fill="#fff"/></g></svg><svg width="36" height="36" fill="none" viewBox="-2 -2 36 36" x="282" y="370" xmlns="http://www.w3.org/2000/svg"><path d="M0 16C0 7.163 7.163 0 16 0s16 7.163 16 16-7.163 16-16 16S0 24.837 0 16z" fill="#fff"/><mask id="f" maskUnits="userSpaceOnUse" x="0" y="0" width="32" height="32"><path fill-rule="evenodd" clip-rule="evenodd" d="M0 16C0 7.163 7.163 0 16 0s16 7.163 16 16-7.163 16-16 16S0 24.837 0 16z" fill="#fff"/></mask><g mask="url(#f)"><path fill-rule="evenodd" clip-rule="evenodd" d="M16 7.467c-2.317 0-2.607.01-3.518.051-.908.042-1.528.186-2.07.397a4.179 4.179 0 00-1.512.984 4.19 4.19 0 00-.985 1.511c-.212.543-.356 1.163-.397 2.071-.04.91-.051 1.202-.051 3.52 0 2.317.01 2.607.051 3.517.042.908.186 1.529.397 2.071.218.561.51 1.037.984 1.512.474.474.95.767 1.511.985.543.21 1.163.355 2.072.396.91.041 1.2.052 3.518.052 2.318 0 2.608-.01 3.518-.052.908-.041 1.529-.185 2.072-.396a4.175 4.175 0 001.51-.985 4.19 4.19 0 00.985-1.512c.21-.542.354-1.163.397-2.07.04-.911.052-1.201.052-3.519 0-2.317-.011-2.608-.052-3.518-.043-.909-.187-1.529-.396-2.071a4.19 4.19 0 00-.985-1.512 4.17 4.17 0 00-1.512-.984c-.544-.211-1.164-.355-2.072-.397-.91-.041-1.2-.051-3.519-.051h.003zm-.284 1.538h.285c2.278 0 2.548.008 3.448.049.832.038 1.284.177 1.585.294.398.154.682.34.98.638.299.299.484.583.639.981.117.3.256.752.294 1.584.04.9.05 1.17.05 3.447 0 2.278-.01 2.548-.05 3.448-.038.832-.177 1.283-.294 1.584-.155.398-.34.681-.639.98a2.64 2.64 0 01-.98.638c-.3.117-.753.256-1.585.294-.9.041-1.17.05-3.448.05-2.279 0-2.549-.009-3.448-.05-.832-.038-1.284-.177-1.585-.294a2.644 2.644 0 01-.981-.638 2.645 2.645 0 01-.639-.981c-.117-.3-.256-.752-.294-1.584-.04-.9-.049-1.17-.049-3.449 0-2.278.009-2.547.05-3.447.037-.832.176-1.283.293-1.584a2.64 2.64 0 01.639-.981c.299-.3.583-.484.981-.64.301-.116.753-.255 1.585-.293.787-.036 1.092-.047 2.682-.048v.002h.481zm3.816 2.44a1.024 1.024 0 112.048 0 1.024 1.024 0 01-2.048 0zm-3.531.173a4.382 4.382 0 100 8.765 4.382 4.382 0 000-8.765zM18.845 16a2.845 2.845 0 10-5.689 0 2.845 2.845 0 005.69 0z" fill="#2B3D4F"/></g></svg><svg width="36" height="36" fill="none" viewBox="-2 -2 36 36" x="318" y="370" xmlns="http://www.w3.org/2000/svg"><g opacity=".3"><path d="M0 16C0 7.163 7.163 0 16 0s16 7.163 16 16-7.163 16-16 16S0 24.837 0 16z" fill="#fff"/><mask id="g" maskUnits="userSpaceOnUse" x="0" y="0" width="32" height="32"><path fill-rule="evenodd" clip-rule="evenodd" d="M0 16C0 7.163 7.163 0 16 0s16 7.163 16 16-7.163 16-16 16S0 24.837 0 16z" fill="#fff"/></mask><g mask="url(#g)"><path fill-rule="evenodd" clip-rule="evenodd" d="M16 7.467c-2.317 0-2.607.01-3.518.051-.908.042-1.528.186-2.07.397a4.179 4.179 0 00-1.512.984 4.19 4.19 0 00-.985 1.511c-.212.543-.356 1.163-.397 2.071-.04.91-.051 1.202-.051 3.52 0 2.317.01 2.607.051 3.517.042.908.186 1.529.397 2.071.218.561.51 1.037.984 1.512.474.474.95.767 1.511.985.543.21 1.163.355 2.072.396.91.041 1.2.052 3.518.052 2.318 0 2.608-.01 3.518-.052.908-.041 1.529-.185 2.072-.396a4.175 4.175 0 001.51-.985 4.19 4.19 0 00.985-1.512c.21-.542.354-1.163.397-2.07.04-.911.052-1.201.052-3.519 0-2.317-.011-2.608-.052-3.518-.043-.909-.187-1.529-.396-2.071a4.19 4.19 0 00-.985-1.512 4.17 4.17 0 00-1.512-.984c-.544-.211-1.164-.355-2.072-.397-.91-.041-1.2-.051-3.519-.051h.003zm-.284 1.538h.285c2.278 0 2.548.008 3.448.049.832.038 1.284.177 1.585.294.398.154.682.34.98.638.299.299.484.583.639.981.117.3.256.752.294 1.584.04.9.05 1.17.05 3.447 0 2.278-.01 2.548-.05 3.448-.038.832-.177 1.283-.294 1.584-.155.398-.34.681-.639.98a2.64 2.64 0 01-.98.638c-.3.117-.753.256-1.585.294-.9.041-1.17.05-3.448.05-2.279 0-2.549-.009-3.448-.05-.832-.038-1.284-.177-1.585-.294a2.644 2.644 0 01-.981-.638 2.645 2.645 0 01-.639-.981c-.117-.3-.256-.752-.294-1.584-.04-.9-.049-1.17-.049-3.449 0-2.278.009-2.547.05-3.447.037-.832.176-1.283.293-1.584a2.64 2.64 0 01.639-.981c.299-.3.583-.484.981-.64.301-.116.753-.255 1.585-.293.787-.036 1.092-.047 2.682-.048v.002h.481zm3.816 2.44a1.024 1.024 0 112.048 0 1.024 1.024 0 01-2.048 0zm-3.531.173a4.382 4.382 0 100 8.765 4.382 4.382 0 000-8.765zM18.845 16a2.845 2.845 0 10-5.689 0 2.845 2.845 0 005.69 0z" fill="#2B3D4F"/></g></g></svg><svg width="34" height="122" fill="none" viewBox="-2 -2 34 122" x="518" y="34" xmlns="http://www.w3.org/2000/svg"><path d="M0 1.5h1.625v-1H0v1zm4.875 0h3.25v-1h-3.25v1zm6.5 0H13v-1h-1.625v1zM13 1.5c.513 0 1.02.025 1.52.074l.097-.996A16.692 16.692 0 0013 .5v1zm4.501.664c.98.296 1.92.688 2.807 1.163l.472-.881a16.402 16.402 0 00-2.989-1.24l-.29.958zm5.332 2.854a15.594 15.594 0 012.15 2.149l.772-.635a16.604 16.604 0 00-2.287-2.287l-.635.773zm3.84 4.674c.475.888.867 1.827 1.164 2.807l.957-.29a16.404 16.404 0 00-1.24-2.989l-.881.472zm1.753 5.788c.05.5.074 1.007.074 1.52h1c0-.546-.026-1.085-.078-1.617l-.996.097zM28.5 17v1.485h1V17h-1zm0 4.456v2.97h1v-2.97h-1zm0 5.941v2.97h1v-2.97h-1zm0 5.941v2.97h1v-2.97h-1zm0 5.941v2.971h1v-2.97h-1zm0 5.942v2.97h1v-2.97h-1zm0 5.94v2.971h1v-2.97h-1zm0 5.942v2.97h1v-2.97h-1zm0 5.941v2.97h1v-2.97h-1zm0 5.941v2.97h1v-2.97h-1zm0 5.942v2.97h1v-2.97h-1zm0 5.94v2.971h1v-2.97h-1zm0 5.942v2.97h1v-2.97h-1zm0 5.941v2.97h1v-2.97h-1zm0 5.941v2.971h1v-2.97h-1zm0 5.941v2.971h1v-2.971h-1zm0 5.942v2.97h1v-2.97h-1zm0 5.941V118h1v-1.485h-1z" fill="#2B3D4F"/></svg><svg width="34" height="122" fill="none" viewBox="-2 -2 34 122" x="394" y="158" xmlns="http://www.w3.org/2000/svg"><path d="M0 116.5h1.625v1H0v-1zm4.875 0h3.25v1h-3.25v-1zm6.5 0H13v1h-1.625v-1zm1.625 0c.513 0 1.02-.025 1.52-.074l.097.996c-.532.052-1.071.078-1.617.078v-1zm4.501-.664a15.35 15.35 0 002.807-1.163l.472.881c-.945.506-1.945.923-2.989 1.24l-.29-.958zm5.332-2.854a15.54 15.54 0 002.15-2.149l.772.635a16.594 16.594 0 01-2.287 2.287l-.635-.773zm3.84-4.674c.475-.888.867-1.827 1.164-2.807l.957.29a16.398 16.398 0 01-1.24 2.989l-.881-.472zm1.753-5.788c.05-.5.074-1.007.074-1.52h1c0 .546-.026 1.085-.078 1.617l-.996-.097zM28.5 101v-1.485h1V101h-1zm0-4.456v-2.97h1v2.97h-1zm0-5.941v-2.97h1v2.97h-1zm0-5.941v-2.97h1v2.97h-1zm0-5.941V75.75h1v2.97h-1zm0-5.942v-2.97h1v2.97h-1zm0-5.94v-2.971h1v2.97h-1zm0-5.942v-2.97h1v2.97h-1zm0-5.941v-2.97h1v2.97h-1zm0-5.941v-2.97h1v2.97h-1zm0-5.941v-2.971h1v2.97h-1zm0-5.942v-2.97h1v2.97h-1zm0-5.94V28.22h1v2.97h-1zm0-5.942v-2.97h1v2.97h-1zm0-5.941v-2.97h1v2.97h-1zm0-5.941v-2.971h1v2.97h-1zm0-5.942v-2.97h1v2.97h-1zm0-5.94V0h1v1.485h-1z" fill="#2B3D4F"/></svg><svg width="36" height="36" fill="none" viewBox="-2 -2 36 36" x="354" y="370" xmlns="http://www.w3.org/2000/svg"><path d="M16 32c8.837 0 16-7.163 16-16S24.837 0 16 0 0 7.163 0 16s7.163 16 16 16z" fill="#3ACE01"/><path d="M16 7c6.08 0 11 3.83 11 8.554 0 1.652-.6 3.191-1.643 4.5-.05.072-.115.16-.205.248l-.009.007a9.006 9.006 0 01-1.199 1.157c-3.04 2.73-8.05 5.985-8.708 5.482-.575-.439.945-2.57-.805-2.92l-.361-.048C8.918 23.27 5 19.767 5 15.554 5 10.83 9.93 7 16 7z" fill="#fff"/><path d="M10.522 18h2.014a.529.529 0 00.522-.532v-.046a.529.529 0 00-.522-.531h-1.447v-3.36a.529.529 0 00-.522-.531h-.045a.529.529 0 00-.522.532v3.936c0 .296.231.532.522.532zM23 15.53v-.045a.529.529 0 00-.522-.532H21.03v-.844h1.447a.529.529 0 00.522-.531v-.046a.529.529 0 00-.522-.532H20.47a.529.529 0 00-.521.532v3.936c0 .289.23.532.522.532h2.007a.529.529 0 00.522-.532v-.03a.529.529 0 00-.522-.532H21.03v-.844h1.447c.29 0 .522-.235.522-.532zm-3.87 2.31a.555.555 0 00.148-.372v-3.936a.529.529 0 00-.522-.532h-.045a.529.529 0 00-.522.532v2.31l-1.88-2.576a.522.522 0 00-.454-.266h-.045a.529.529 0 00-.522.532v3.936c0 .289.231.532.522.532h.045a.529.529 0 00.522-.532v-2.355l1.894 2.636c.015.015.023.038.038.053a.435.435 0 00.201.152.55.55 0 00.194.038h.045c.09 0 .171-.022.246-.06a.303.303 0 00.134-.092zm-5.132.16h.045a.529.529 0 00.522-.532v-3.936a.529.529 0 00-.522-.532h-.045a.529.529 0 00-.522.532v3.936c0 .296.23.532.522.532z" fill="#3ACE01"/></svg><svg width="36" height="36" fill="none" viewBox="-2 -2 36 36" x="390" y="370" xmlns="http://www.w3.org/2000/svg"><path d="M0 16C0 7.163 7.163 0 16 0s16 7.163 16 16-7.163 16-16 16S0 24.837 0 16z" fill="#fff"/><path d="M14.4 19.2v-5.333l4.267 2.666L14.4 19.2z" fill="#fff"/><path d="M16 7c6.08 0 11 3.83 11 8.554 0 1.652-.6 3.191-1.643 4.5-.05.072-.115.16-.205.248l-.009.007a9.006 9.006 0 01-1.199 1.157c-3.04 2.73-8.05 5.985-8.708 5.482-.575-.439.945-2.57-.805-2.92l-.361-.048C8.918 23.27 5 19.767 5 15.554 5 10.83 9.93 7 16 7z" fill="#2B3D4F"/><path d="M10.522 18h2.014a.529.529 0 00.522-.532v-.046a.529.529 0 00-.522-.531h-1.447v-3.36a.529.529 0 00-.522-.531h-.045a.529.529 0 00-.522.532v3.936c0 .296.231.532.522.532zM23 15.53v-.045a.529.529 0 00-.522-.532H21.03v-.844h1.447a.529.529 0 00.522-.531v-.046a.529.529 0 00-.522-.532H20.47a.529.529 0 00-.521.532v3.936c0 .289.23.532.522.532h2.007a.529.529 0 00.522-.532v-.03a.529.529 0 00-.522-.532H21.03v-.844h1.447c.29 0 .522-.235.522-.532zm-3.87 2.31a.555.555 0 00.148-.372v-3.936a.529.529 0 00-.522-.532h-.045a.529.529 0 00-.522.532v2.31l-1.88-2.576a.522.522 0 00-.454-.266h-.045a.529.529 0 00-.522.532v3.936c0 .289.231.532.522.532h.045a.529.529 0 00.522-.532v-2.355l1.894 2.636c.015.015.023.038.038.053a.435.435 0 00.201.152.55.55 0 00.194.038h.045c.09 0 .171-.022.246-.06a.303.303 0 00.134-.092zm-5.132.16h.045a.529.529 0 00.522-.532v-3.936a.529.529 0 00-.522-.532h-.045a.529.529 0 00-.522.532v3.936c0 .296.23.532.522.532z" fill="#fff"/></svg><svg width="36" height="36" fill="none" viewBox="-2 -2 36 36" x="426" y="370" xmlns="http://www.w3.org/2000/svg"><g opacity=".3"><path d="M0 16C0 7.163 7.163 0 16 0s16 7.163 16 16-7.163 16-16 16S0 24.837 0 16z" fill="#fff"/><path d="M14.4 19.2v-5.333l4.267 2.666L14.4 19.2z" fill="#fff"/><path d="M16 7c6.08 0 11 3.83 11 8.554 0 1.652-.6 3.191-1.643 4.5-.05.072-.115.16-.205.248l-.009.007a9.006 9.006 0 01-1.199 1.157c-3.04 2.73-8.05 5.985-8.708 5.482-.575-.439.945-2.57-.805-2.92l-.361-.048C8.918 23.27 5 19.767 5 15.554 5 10.83 9.93 7 16 7z" fill="#2B3D4F"/><path d="M10.522 18h2.014a.529.529 0 00.522-.532v-.046a.529.529 0 00-.522-.531h-1.447v-3.36a.529.529 0 00-.522-.531h-.045a.529.529 0 00-.522.532v3.936c0 .296.231.532.522.532zM23 15.53v-.045a.529.529 0 00-.522-.532H21.03v-.844h1.447a.529.529 0 00.522-.531v-.046a.529.529 0 00-.522-.532H20.47a.529.529 0 00-.521.532v3.936c0 .289.23.532.522.532h2.007a.529.529 0 00.522-.532v-.03a.529.529 0 00-.522-.532H21.03v-.844h1.447c.29 0 .522-.235.522-.532zm-3.87 2.31a.555.555 0 00.148-.372v-3.936a.529.529 0 00-.522-.532h-.045a.529.529 0 00-.522.532v2.31l-1.88-2.576a.522.522 0 00-.454-.266h-.045a.529.529 0 00-.522.532v3.936c0 .289.231.532.522.532h.045a.529.529 0 00.522-.532v-2.355l1.894 2.636c.015.015.023.038.038.053a.435.435 0 00.201.152.55.55 0 00.194.038h.045c.09 0 .171-.022.246-.06a.303.303 0 00.134-.092zm-5.132.16h.045a.529.529 0 00.522-.532v-3.936a.529.529 0 00-.522-.532h-.045a.529.529 0 00-.522.532v3.936c0 .296.23.532.522.532z" fill="#fff"/></g></svg><svg width="36" height="36" fill="none" viewBox="-2 -2 36 36" x="462" y="370" xmlns="http://www.w3.org/2000/svg"><path d="M0 16C0 7.163 7.163 0 16 0s16 7.163 16 16-7.163 16-16 16S0 24.837 0 16z" fill="#0077B5"/><path fill-rule="evenodd" clip-rule="evenodd" d="M11.546 9.882c0 1.046-.787 1.883-2.052 1.883h-.023c-1.217 0-2.004-.837-2.004-1.883C7.467 8.814 8.277 8 9.518 8c1.24 0 2.004.814 2.028 1.882zm-.239 3.37v10.894H7.681V13.252h3.626zm13.077 10.894V17.9c0-3.346-1.789-4.904-4.175-4.904-1.925 0-2.787 1.057-3.268 1.8v-1.544h-3.627c.048 1.022 0 10.895 0 10.895h3.627v-6.085c0-.325.023-.65.119-.883.262-.65.859-1.324 1.86-1.324 1.313 0 1.838.999 1.838 2.463v5.828h3.626z" fill="#fff"/></svg><svg width="44" height="44" fill="none" viewBox="-2 -2 44 44" x="260" y="265" xmlns="http://www.w3.org/2000/svg"><path d="M0 20C0 8.954 8.954 0 20 0s20 8.954 20 20-8.954 20-20 20S0 31.046 0 20z" fill="#2B3D4F"/><path fill-rule="evenodd" clip-rule="evenodd" d="M14.433 12.352c0 1.308-.984 2.354-2.565 2.354h-.029c-1.521 0-2.505-1.046-2.505-2.354 0-1.335 1.014-2.352 2.564-2.352s2.505 1.017 2.535 2.352zm-.299 4.213v13.618H9.602V16.565h4.532zM30.48 30.183v-7.808c0-4.183-2.236-6.13-5.218-6.13-2.407 0-3.484 1.322-4.086 2.25v-1.93h-4.533c.06 1.278 0 13.618 0 13.618h4.533v-7.605c0-.407.03-.813.15-1.104.327-.814 1.073-1.655 2.325-1.655 1.64 0 2.297 1.248 2.297 3.078v7.286h4.532z" fill="#fff"/></svg><svg width="36" height="36" fill="none" viewBox="-2 -2 36 36" x="498" y="370" xmlns="http://www.w3.org/2000/svg"><path d="M0 16C0 7.163 7.163 0 16 0s16 7.163 16 16-7.163 16-16 16S0 24.837 0 16z" fill="#fff"/><path fill-rule="evenodd" clip-rule="evenodd" d="M11.546 9.882c0 1.046-.787 1.883-2.052 1.883h-.023c-1.217 0-2.004-.837-2.004-1.883C7.467 8.814 8.277 8 9.518 8c1.24 0 2.004.814 2.028 1.882zm-.239 3.37v10.895H7.681V13.252h3.626zm13.077 10.894V17.9c0-3.346-1.789-4.904-4.175-4.904-1.925 0-2.787 1.057-3.268 1.8v-1.544h-3.627c.048 1.022 0 10.895 0 10.895h3.627v-6.085c0-.325.023-.65.119-.883.262-.65.859-1.324 1.86-1.324 1.313 0 1.838.999 1.838 2.463v5.828h3.626z" fill="#2B3D4F"/></svg><svg width="36" height="36" fill="none" viewBox="-2 -2 36 36" y="414" xmlns="http://www.w3.org/2000/svg"><g opacity=".3"><path d="M0 16C0 7.163 7.163 0 16 0s16 7.163 16 16-7.163 16-16 16S0 24.837 0 16z" fill="#fff"/><path fill-rule="evenodd" clip-rule="evenodd" d="M11.546 9.882c0 1.046-.787 1.883-2.052 1.883h-.023c-1.217 0-2.004-.837-2.004-1.883C7.467 8.814 8.277 8 9.518 8c1.24 0 2.004.814 2.028 1.882zm-.239 3.37v10.895H7.681V13.252h3.626zm13.077 10.894V17.9c0-3.346-1.789-4.904-4.175-4.904-1.925 0-2.787 1.057-3.268 1.8v-1.544h-3.627c.048 1.022 0 10.895 0 10.895h3.627v-6.085c0-.325.023-.65.119-.883.262-.65.859-1.324 1.86-1.324 1.313 0 1.838.999 1.838 2.463v5.828h3.626z" fill="#2B3D4F"/></g></svg><svg width="26" height="22" fill="none" viewBox="-2 -2 26 22" x="358" y="450" xmlns="http://www.w3.org/2000/svg"><path d="M1 9h17.733m-6.067-7l7 7-7 7" stroke="#F54D2E" stroke-width="2" stroke-linecap="square"/></svg><svg width="18" height="12" fill="none" viewBox="-2 -2 18 12" x="506" y="245" xmlns="http://www.w3.org/2000/svg"><path d="M5.77 0H14L8.23 8H0l5.77-8z" fill="#F54D2E"/></svg><svg width="18" height="12" fill="none" viewBox="-2 -2 18 12" x="524" y="245" xmlns="http://www.w3.org/2000/svg"><path d="M5.77 0H14L8.23 8H0l5.77-8z" fill="#2B3D4F"/></svg><svg width="18" height="12" fill="none" viewBox="-2 -2 18 12" x="468" y="260" xmlns="http://www.w3.org/2000/svg"><path d="M5.77 0H14L8.23 8H0l5.77-8z" fill="#fff"/></svg><svg width="59" height="36" fill="none" viewBox="-2 -2 59 36" x="290" y="152" xmlns="http://www.w3.org/2000/svg"><path d="M22.671 0H55L32.329 32H0L22.671 0z" fill="#F54D2E"/></svg><svg width="160" height="34" fill="none" viewBox="-2 -2 160 34" x="394" xmlns="http://www.w3.org/2000/svg"><path d="M112.221 21.607c-3.733 0-6.448-2.828-6.448-6.674 0-3.847 2.715-6.675 6.448-6.675 3.62 0 6.449 2.828 6.449 6.675 0 3.846-2.716 6.674-6.449 6.674zm0-21.607c-8.484 0-15.159 6.561-15.159 14.933 0 8.37 6.675 14.82 15.159 14.82 8.485 0 15.159-6.562 15.159-14.82C127.38 6.56 120.706 0 112.221 0zM15.159 21.607c-3.733 0-6.448-2.828-6.448-6.674 0-3.847 2.715-6.675 6.448-6.675 3.62 0 6.448 2.828 6.448 6.675 0 3.846-2.715 6.674-6.448 6.674zm6.109-18.553C19.344.905 16.743 0 14.028 0 6.222 0 0 6.561 0 14.933c0 3.733 1.244 7.24 3.62 9.955 2.602 3.054 6.674 4.864 10.86 4.864 2.489 0 5.317-1.131 6.788-2.941v2.375h8.484V.566h-8.484v2.488zM156 .566h-10.294l-4.864 6.901v-6.9h-8.711v28.62h8.711V10.861h8.031L156 .566zM84.73 21.607c-3.959 0-6.787-2.715-6.787-6.674 0-3.847 2.828-6.675 6.561-6.675a7.46 7.46 0 015.204 2.15l4.751-6.788A15.578 15.578 0 0084.504 0C75.907 0 69.12 6.561 69.12 14.933c0 8.484 6.561 14.82 15.272 14.82 4.186 0 7.58-1.245 10.52-3.734l-4.75-6.9c-1.245 1.244-3.168 2.488-5.43 2.488zM53.282 0c-2.489 0-6.675 1.244-8.145 3.054V.566h-8.485v28.62h8.711v-18.1c1.018-1.244 3.28-2.828 5.996-2.828 1.47 0 2.715.453 3.62 1.245.678.678 1.357 1.81 1.357 4.525v15.158h8.71V10.86C65.047 3.62 59.73 0 53.283 0z" fill="#fff"/></svg><svg width="165" height="35" fill="none" viewBox="-2 -2 165 35" x="168" y="328" xmlns="http://www.w3.org/2000/svg"><path d="M115.819 22.3c-3.853 0-6.655-2.92-6.655-6.889 0-3.97 2.802-6.888 6.655-6.888 3.736 0 6.654 2.919 6.654 6.888 0 3.97-2.802 6.888-6.654 6.888zm0-22.3c-8.757 0-15.645 6.772-15.645 15.411 0 8.64 6.888 15.295 15.645 15.295 8.756 0 15.644-6.772 15.644-15.295 0-8.64-6.888-15.411-15.644-15.411zM15.645 22.3c-3.853 0-6.655-2.92-6.655-6.889 0-3.97 2.802-6.888 6.655-6.888 3.736 0 6.654 2.919 6.654 6.888 0 3.97-2.802 6.888-6.654 6.888zm6.304-19.148C19.964.934 17.28 0 14.477 0 6.421 0 0 6.772 0 15.411c0 3.853 1.284 7.472 3.736 10.274 2.685 3.153 6.888 5.02 11.208 5.02 2.569 0 5.487-1.167 7.005-3.035v2.452h8.757V.584h-8.757v2.568zM161 .584h-10.625l-5.02 7.122V.584h-8.99v29.538h8.99V11.208h8.289L161 .584zM87.448 22.3c-4.087 0-7.005-2.803-7.005-6.889 0-3.97 2.918-6.888 6.771-6.888a7.7 7.7 0 015.37 2.218l4.904-7.005A16.078 16.078 0 0087.214 0c-8.873 0-15.878 6.772-15.878 15.411 0 8.757 6.772 15.295 15.761 15.295 4.32 0 7.823-1.285 10.858-3.853l-4.903-7.122c-1.285 1.284-3.27 2.568-5.604 2.568zM54.989 0C52.42 0 48.1 1.284 46.583 3.152V.584h-8.757v29.538h8.99v-18.68c1.05-1.285 3.386-2.92 6.188-2.92 1.518 0 2.802.468 3.736 1.285.7.7 1.4 1.868 1.4 4.67v15.645h8.99V11.208C67.13 3.736 61.645 0 54.99 0z" fill="#F54D2E"/></svg><svg width="78" height="19" fill="none" viewBox="-2 -2 78 19" x="428" y="158" xmlns="http://www.w3.org/2000/svg"><path d="M53.234 10.25c-1.771 0-3.059-1.342-3.059-3.167 0-1.824 1.288-3.166 3.059-3.166 1.717 0 3.058 1.342 3.058 3.166 0 1.825-1.287 3.166-3.058 3.166zm0-10.25c-4.025 0-7.191 3.112-7.191 7.083s3.166 7.03 7.19 7.03c4.025 0 7.191-3.112 7.191-7.03 0-3.97-3.166-7.083-7.19-7.083zM7.19 10.25c-1.77 0-3.058-1.342-3.058-3.167 0-1.824 1.288-3.166 3.059-3.166 1.717 0 3.058 1.342 3.058 3.166 0 1.825-1.287 3.166-3.058 3.166zm2.898-8.801C9.176.429 7.942 0 6.654 0 2.951 0 0 3.112 0 7.083c0 1.771.59 3.435 1.717 4.723 1.234 1.449 3.166 2.307 5.152 2.307 1.18 0 2.522-.537 3.22-1.395v1.127h4.024V.268H10.09v1.18zM74 .269h-4.883L66.81 3.542V.269h-4.132v13.576h4.132V5.152h3.81L74 .269zM40.193 10.25c-1.879 0-3.22-1.288-3.22-3.167 0-1.824 1.341-3.166 3.112-3.166.912 0 1.825.376 2.469 1.02l2.253-3.22A7.39 7.39 0 0040.085 0c-4.078 0-7.298 3.112-7.298 7.083 0 4.025 3.113 7.03 7.245 7.03 1.985 0 3.595-.59 4.99-1.77l-2.254-3.274c-.59.59-1.502 1.18-2.575 1.18zM25.275 0c-1.18 0-3.166.59-3.864 1.449V.269h-4.024v13.576h4.132V5.259c.483-.59 1.556-1.342 2.844-1.342.697 0 1.288.215 1.717.59.322.323.644.86.644 2.147v7.19h4.132V5.153c0-3.435-2.522-5.152-5.58-5.152z" fill="#F54D2E"/></svg><svg width="60" height="15" fill="none" viewBox="-2 -2 60 15" x="428" y="245" xmlns="http://www.w3.org/2000/svg"><path d="M40.284 7.756c-1.34 0-2.315-1.015-2.315-2.396 0-1.38.975-2.396 2.315-2.396 1.3 0 2.315 1.016 2.315 2.396 0 1.381-.975 2.396-2.315 2.396zm0-7.756c-3.045 0-5.441 2.355-5.441 5.36 0 3.005 2.395 5.32 5.441 5.32s5.442-2.355 5.442-5.32c0-3.005-2.396-5.36-5.442-5.36zM5.442 7.756c-1.34 0-2.315-1.015-2.315-2.396 0-1.38.975-2.396 2.315-2.396 1.3 0 2.314 1.016 2.314 2.396 0 1.381-.974 2.396-2.314 2.396zm2.193-6.66C6.945.325 6.01 0 5.035 0 2.234 0 0 2.355 0 5.36c0 1.34.447 2.6 1.3 3.574.933 1.097 2.395 1.746 3.898 1.746.893 0 1.909-.406 2.437-1.056v.853h3.045V.203H7.635v.893zM56 .203h-3.695L50.558 2.68V.203h-3.127v10.274h3.127V3.898h2.884L56 .203zM30.416 7.756c-1.421 0-2.436-.974-2.436-2.396 0-1.38 1.015-2.396 2.355-2.396.69 0 1.38.285 1.868.772l1.705-2.437A5.592 5.592 0 0030.335 0c-3.086 0-5.523 2.355-5.523 5.36 0 3.046 2.355 5.32 5.482 5.32 1.503 0 2.721-.447 3.777-1.34l-1.706-2.477c-.446.447-1.137.893-1.949.893zM19.126 0c-.893 0-2.396.447-2.924 1.096V.203h-3.045v10.274h3.127V3.98c.365-.447 1.177-1.016 2.152-1.016.528 0 .975.163 1.3.447.243.244.487.65.487 1.625v5.441h3.127V3.898C23.35 1.3 21.44 0 19.126 0z" fill="#F54D2E"/></svg><svg width="22" height="18" fill="none" viewBox="-2 -2 22 18" x="428" y="260" xmlns="http://www.w3.org/2000/svg"><path d="M17 7H1m6 6L1 7l6-6" stroke="#2B3D4F" stroke-width="2" stroke-linecap="round" stroke-linejoin="round"/></svg><svg width="26" height="22" fill="none" viewBox="-2 -2 26 22" x="384" y="450" xmlns="http://www.w3.org/2000/svg"><path d="M1.667 9H19.4m-6.067-7l7 7-7 7" stroke="#2B3D4F" stroke-width="2" stroke-linecap="square"/></svg><svg width="26" height="22" fill="none" viewBox="-2 -2 26 22" x="410" y="450" xmlns="http://www.w3.org/2000/svg"><path d="M1.667 9H19.4m-6.067-7l7 7-7 7" stroke="#fff" stroke-width="2" stroke-linecap="square"/></svg><svg width="26" height="22" fill="none" viewBox="-2 -2 26 22" x="436" y="450" xmlns="http://www.w3.org/2000/svg"><path d="M20.333 9H2.6m6.067 7l-7-7 7-7" stroke="#2B3D4F" stroke-width="2" stroke-linecap="square"/></svg><svg width="26" height="22" fill="none" viewBox="-2 -2 26 22" x="462" y="450" xmlns="http://www.w3.org/2000/svg"><path d="M20.333 9H2.6m6.067 7l-7-7 7-7" stroke="#fff" stroke-width="2" stroke-linecap="square"/></svg><svg width="54" height="61" fill="none" viewBox="-2 -2 54 61" x="496" y="177" xmlns="http://www.w3.org/2000/svg"><circle cx="25" cy="24" r="24" fill="#F54D2E"/><path d="M26.902 56.135V40.53h15.605L26.902 56.135z" fill="#F54D2E"/><path d="M18.452 16.363h7.774l-5.452 7.695H13l5.452-7.695z" fill="#fff"/><path d="M20.775 24.057H13l5.451 7.695h7.775l-5.452-7.695zm8.603-7.694h7.774L31.7 24.058h-7.774l5.452-7.695z" fill="#fff"/><path d="M31.7 24.057h-7.774l5.452 7.695h7.774l-5.451-7.695z" fill="#fff"/></svg><svg width="36" height="43" fill="none" viewBox="-2 -2 36 43" x="132" y="370" xmlns="http://www.w3.org/2000/svg"><circle cx="16" cy="16.711" r="16" fill="#F54D2E"/><path d="M17.268 38.134V27.73H27.67L17.268 38.134z" fill="#F54D2E"/><path d="M11.634 11.62h5.183l-3.634 5.13H8l3.634-5.13z" fill="#fff"/><path d="M13.184 16.749H8l3.635 5.13h5.182l-3.634-5.13zm5.734-5.129H24.1l-3.635 5.13h-5.183l3.635-5.13z" fill="#fff"/><path d="M20.467 16.749h-5.183l3.635 5.13h5.183l-3.635-5.13z" fill="#fff"/></svg><svg width="124" height="124" fill="none" viewBox="-2 -2 124 124" x="394" y="34" xmlns="http://www.w3.org/2000/svg"><path fill-rule="evenodd" clip-rule="evenodd" d="M120 0H0v120h120V0zM52 78.856L76 65 52 51.144v27.712z" fill="#fff"/></svg><svg width="60" height="60" fill="none" viewBox="-2 -2 60 60" x="462" y="280" xmlns="http://www.w3.org/2000/svg"><path fill-rule="evenodd" clip-rule="evenodd" d="M56 0H0v56h56V0zM24.267 34.466L35.467 28l-11.2-6.466v12.932z" fill="#fff"/></svg><svg width="20" height="20" fill="none" viewBox="-2 -2 20 20" x="446" y="478" xmlns="http://www.w3.org/2000/svg"><path d="M8 1v14M1 8h14" stroke="#2B3D4F" stroke-width="2" stroke-linecap="round" stroke-linejoin="round"/></svg><svg width="20" height="20" fill="none" viewBox="-2 -2 20 20" x="466" y="478" xmlns="http://www.w3.org/2000/svg"><path d="M8 1v14M1 8h14" stroke="#F54D2E" stroke-width="2" stroke-linecap="round" stroke-linejoin="round"/></svg><svg width="28" height="24" fill="none" viewBox="-2 -2 28 24" x="509" y="414" xmlns="http://www.w3.org/2000/svg"><path d="M13.284 20H4.936L0 12.27V7.774L4.936 0h8.348l-6.34 10 6.34 10zM24 20h-8.348l-4.936-7.73V7.774L15.652 0H24l-6.341 10L24 20z" fill="#F54D2E"/></svg><svg width="23" height="16" fill="none" viewBox="-2 -2 23 16" x="506" y="158" xmlns="http://www.w3.org/2000/svg"><path d="M4.151 0h5.92L5.918 5.86H0L4.151 0z" fill="#F54D2E"/><path d="M5.92 5.858H0l4.152 5.859h5.92L5.92 5.857zM12.471 0h5.92L14.24 5.86H8.32L12.471 0z" fill="#F54D2E"/><path d="M14.24 5.858H8.322l4.151 5.859h5.92l-4.151-5.86z" fill="#F54D2E"/></svg><svg width="27" height="24" fill="none" viewBox="-2 -2 27 24" x="252" y="450" xmlns="http://www.w3.org/2000/svg"><path d="M21.496 1.998v6h-6" stroke="#2B3D4F" stroke-width="2" stroke-linecap="round" stroke-linejoin="round"/><path d="M18.987 12.998a9 9 0 11-2.12-9.36l4.63 4.36" stroke="#2B3D4F" stroke-width="2" stroke-linecap="round" stroke-linejoin="round"/></svg><svg width="27" height="24" fill="none" viewBox="-2 -2 27 24" x="279" y="450" xmlns="http://www.w3.org/2000/svg"><path d="M21.496 1.998v6h-6" stroke="#F54D2E" stroke-width="2" stroke-linecap="round" stroke-linejoin="round"/><path d="M18.987 12.998a9 9 0 11-2.12-9.36l4.63 4.36" stroke="#F54D2E" stroke-width="2" stroke-linecap="round" stroke-linejoin="round"/></svg><svg width="28" height="28" fill="none" stroke="#000" stroke-width="2" stroke-linecap="round" stroke-linejoin="round" class="dmfeather dmfeather-search" viewBox="-2 -2 28 28" y="450" xmlns="http://www.w3.org/2000/svg"><circle cx="11" cy="11" r="8"/><path d="M21 21l-4.35-4.35"/></svg><svg width="28" height="28" fill="none" stroke="gray" stroke-width="2" stroke-linecap="round" stroke-linejoin="round" class="dnfeather dnfeather-search" viewBox="-2 -2 28 28" x="28" y="450" xmlns="http://www.w3.org/2000/svg"><circle cx="11" cy="11" r="8"/><path d="M21 21l-4.35-4.35"/></svg><svg width="24" height="24" fill="none" viewBox="-2 -2 24 24" x="144" y="504" xmlns="http://www.w3.org/2000/svg"><path clip-rule="evenodd" d="M8.5 16a7.5 7.5 0 100-15 7.5 7.5 0 000 15z" stroke="#2B3D4F" stroke-width="2" stroke-linecap="round" stroke-linejoin="round"/><path d="M19 19l-5.2-5.2" stroke="#2B3D4F" stroke-width="2" stroke-linecap="round" stroke-linejoin="round"/></svg><svg width="24" height="24" fill="none" viewBox="-2 -2 24 24" x="168" y="504" xmlns="http://www.w3.org/2000/svg"><path clip-rule="evenodd" d="M8.5 16a7.5 7.5 0 100-15 7.5 7.5 0 000 15z" stroke="#F54D2E" stroke-width="2" stroke-linecap="round" stroke-linejoin="round"/><path d="M19 19l-5.2-5.2" stroke="#F54D2E" stroke-width="2" stroke-linecap="round" stroke-linejoin="round"/></svg><svg width="28" height="28" fill="none" stroke="#fff" stroke-width="2" stroke-linecap="round" stroke-linejoin="round" class="dqfeather dqfeather-search" viewBox="-2 -2 28 28" x="56" y="450" xmlns="http://www.w3.org/2000/svg"><circle cx="11" cy="11" r="8"/><path d="M21 21l-4.35-4.35"/></svg><svg width="24" height="24" fill="none" viewBox="-2 -2 24 24" x="192" y="504" xmlns="http://www.w3.org/2000/svg"><path clip-rule="evenodd" d="M8.5 16a7.5 7.5 0 100-15 7.5 7.5 0 000 15z" stroke="#fff" stroke-width="2" stroke-linecap="round" stroke-linejoin="round"/><path d="M19 19l-5.2-5.2" stroke="#fff" stroke-width="2" stroke-linecap="round" stroke-linejoin="round"/></svg><svg width="24" height="26" fill="none" viewBox="-2 -2 24 26" x="72" y="504" xmlns="http://www.w3.org/2000/svg"><path clip-rule="evenodd" d="M16 7a3 3 0 100-6 3 3 0 000 6zM4 14a3 3 0 100-6 3 3 0 000 6zm12 7a3 3 0 100-6 3 3 0 000 6z" stroke="#2B3D4F" stroke-width="2" stroke-linecap="round" stroke-linejoin="round"/><path d="M6.59 12.51l6.83 3.98m-.01-10.98L6.59 9.49" stroke="#2B3D4F" stroke-width="2" stroke-linecap="round" stroke-linejoin="round"/></svg><svg width="26" height="22" fill="none" viewBox="-2 -2 26 22" x="488" y="450" xmlns="http://www.w3.org/2000/svg"><path d="M1 9h17.733m-6.066-7l7 7-7 7" stroke="#2B3D4F" stroke-width="2" stroke-linecap="square"/></svg><svg width="26" height="22" fill="none" viewBox="-2 -2 26 22" x="514" y="450" xmlns="http://www.w3.org/2000/svg"><path d="M1 9h17.733m-6.066-7l7 7-7 7" stroke="#fff" stroke-width="2" stroke-linecap="square"/></svg><svg width="26" height="22" fill="none" viewBox="-2 -2 26 22" x="118" y="478" xmlns="http://www.w3.org/2000/svg"><path d="M20.668 9H2.935m6.066 7l-7-7 7-7" stroke="#2B3D4F" stroke-width="2" stroke-linecap="square"/></svg><svg width="26" height="22" fill="none" viewBox="-2 -2 26 22" x="144" y="478" xmlns="http://www.w3.org/2000/svg"><path d="M20.668 9H2.935m6.066 7l-7-7 7-7" stroke="#fff" stroke-width="2" stroke-linecap="square"/></svg><svg width="26" height="22" fill="none" viewBox="-2 -2 26 22" x="170" y="478" xmlns="http://www.w3.org/2000/svg"><path d="M1 9h17.733m-6.066-7l7 7-7 7" stroke="#2B3D4F" stroke-width="2" stroke-linecap="square"/></svg><svg width="26" height="22" fill="none" viewBox="-2 -2 26 22" x="196" y="478" xmlns="http://www.w3.org/2000/svg"><path d="M1 9h17.733m-6.066-7l7 7-7 7" stroke="#fff" stroke-width="2" stroke-linecap="square"/></svg><svg width="26" height="22" fill="none" viewBox="-2 -2 26 22" x="222" y="478" xmlns="http://www.w3.org/2000/svg"><path d="M20.668 9H2.935m6.066 7l-7-7 7-7" stroke="#2B3D4F" stroke-width="2" stroke-linecap="square"/></svg><svg width="26" height="22" fill="none" viewBox="-2 -2 26 22" x="248" y="478" xmlns="http://www.w3.org/2000/svg"><path d="M20.668 9H2.935m6.066 7l-7-7 7-7" stroke="#fff" stroke-width="2" stroke-linecap="square"/></svg><svg width="28" height="28" fill="none" viewBox="-2 -2 28 28" x="84" y="450" xmlns="http://www.w3.org/2000/svg"><circle cx="12" cy="12" r="11" stroke="#2B3D4F" stroke-width="2"/><path d="M17 17.5v0a6.757 6.757 0 00-10 0v0" stroke="#2B3D4F" stroke-width="2"/><circle cx="8" cy="10" r="1" fill="#2B3D4F"/><circle cx="16" cy="10" r="1" fill="#2B3D4F"/></svg><svg width="28" height="28" fill="none" viewBox="-2 -2 28 28" x="112" y="450" xmlns="http://www.w3.org/2000/svg"><circle cx="12" cy="12" r="11" stroke="#9C9FA3" stroke-width="2"/><path stroke="#9C9FA3" stroke-width="2" d="M7 17h10"/><circle cx="8" cy="10" r="1" fill="#9C9FA3"/><circle cx="16" cy="10" r="1" fill="#9C9FA3"/></svg><svg width="28" height="28" fill="none" viewBox="-2 -2 28 28" x="140" y="450" xmlns="http://www.w3.org/2000/svg"><circle cx="12" cy="12" r="11" stroke="#549E38" stroke-width="2"/><path d="M7 16v0a6.757 6.757 0 0010 0v0" stroke="#549E38" stroke-width="2"/><circle cx="8" cy="10" r="1" fill="#549E38"/><circle cx="16" cy="10" r="1" fill="#549E38"/></svg><svg width="18" height="17" fill="none" viewBox="-2 -2 18 17" x="260" y="309" xmlns="http://www.w3.org/2000/svg"><path d="M6.039.618a1 1 0 011.757 0l1.366 2.516a1 1 0 00.692.505l2.809.534a1 1 0 01.543 1.666l-1.969 2.104a1 1 0 00-.262.81l.365 2.861a1 1 0 01-1.422 1.03l-2.57-1.226a1 1 0 00-.86 0l-2.57 1.225a1 1 0 01-1.423-1.029l.365-2.861a1 1 0 00-.262-.81L.628 5.84a1 1 0 01.544-1.666l2.809-.534a1 1 0 00.692-.505L6.039.618z" fill="#FFD200"/></svg><svg width="44" height="42" fill="none" viewBox="-2 -2 44 42" x="304" y="265" xmlns="http://www.w3.org/2000/svg"><path d="M19.118.521a1.008 1.008 0 011.764 0l5.776 10.518c.145.264.4.449.696.504l11.826 2.223a1.001 1.001 0 01.545 1.672l-8.256 8.723a1 1 0 00-.265.816l1.532 11.891a1.005 1.005 0 01-1.428 1.034L20.43 32.775a1.009 1.009 0 00-.86 0L8.692 37.902a1.005 1.005 0 01-1.428-1.034l1.532-11.892a1 1 0 00-.265-.815L.275 15.438a1.001 1.001 0 01.545-1.672l11.826-2.223c.296-.055.551-.24.696-.504L19.118.521z" fill="#FFD200"/></svg><svg width="18" height="17" fill="none" viewBox="-2 -2 18 17" x="278" y="309" xmlns="http://www.w3.org/2000/svg"><path d="M6.039.618a1 1 0 011.757 0l1.366 2.516a1 1 0 00.692.505l2.809.534a1 1 0 01.543 1.666l-1.969 2.104a1 1 0 00-.262.81l.365 2.861a1 1 0 01-1.422 1.03l-2.57-1.226a1 1 0 00-.86 0l-2.57 1.225a1 1 0 01-1.423-1.029l.365-2.861a1 1 0 00-.262-.81L.628 5.84a1 1 0 01.544-1.666l2.809-.534a1 1 0 00.692-.505L6.039.618z" fill="#EDEDED"/></svg><svg width="44" height="42" fill="none" viewBox="-2 -2 44 42" x="348" y="265" xmlns="http://www.w3.org/2000/svg"><path d="M8.692 37.902l10.878-5.127a1.01 1.01 0 01.43-.096V0a.996.996 0 00-.882.521L13.342 11.04c-.145.264-.4.449-.696.504L.82 13.766a1.001 1.001 0 00-.545 1.672l8.256 8.723a1 1 0 01.265.816l-1.532 11.89a1.005 1.005 0 001.428 1.034z" fill="#FFD200"/><path d="M31.308 37.902L20.43 32.775a1.008 1.008 0 00-.43-.096V0c.346 0 .692.174.882.521l5.776 10.518c.145.264.4.449.696.504l11.826 2.223a1.001 1.001 0 01.545 1.672l-8.256 8.723a1 1 0 00-.265.816l1.532 11.891a1.005 1.005 0 01-1.428 1.034z" fill="#EDEDED"/></svg><svg width="36" height="36" fill="none" viewBox="-2 -2 36 36" x="36" y="414" xmlns="http://www.w3.org/2000/svg"><path d="M16 32c8.837 0 16-7.163 16-16 0-8.836-7.163-16-16-16S0 7.164 0 16c0 8.837 7.163 16 16 16z" fill="url(#eipaint0_linear)"/><path fill-rule="evenodd" clip-rule="evenodd" d="M7.243 15.832c4.665-2.033 7.775-3.372 9.331-4.02 4.444-1.848 5.367-2.169 5.969-2.18.132-.002.428.031.62.187a.675.675 0 01.227.433c.022.124.048.408.027.63-.24 2.53-1.283 8.67-1.813 11.503-.224 1.2-.665 1.601-1.093 1.64-.93.086-1.635-.614-2.535-1.203-1.408-.924-2.203-1.498-3.57-2.399-1.58-1.041-.556-1.613.344-2.548.236-.245 4.33-3.969 4.409-4.306.01-.043.02-.2-.075-.283-.093-.083-.231-.055-.33-.032-.142.032-2.392 1.519-6.75 4.46-.638.439-1.217.652-1.735.641-.571-.012-1.67-.323-2.487-.588-1.002-.326-1.798-.498-1.729-1.051.036-.289.433-.583 1.19-.884z" fill="#fff"/><defs><linearGradient id="eipaint0_linear" x1="16" y1="0" x2="16" y2="31.763" gradientUnits="userSpaceOnUse"><stop stop-color="#2AABEE"/><stop offset="1" stop-color="#229ED9"/></linearGradient></defs></svg><svg width="44" height="44" fill="none" viewBox="-2 -2 44 44" y="370" xmlns="http://www.w3.org/2000/svg"><path d="M0 20C0 8.954 8.954 0 20 0s20 8.954 20 20-8.954 20-20 20S0 31.046 0 20z" fill="#2B3D4F"/><path fill-rule="evenodd" clip-rule="evenodd" d="M10.375 19.888c5.369-2.258 8.949-3.747 10.74-4.466 5.114-2.053 6.177-2.41 6.87-2.422.152-.002.493.034.713.207a.74.74 0 01.262.481c.025.139.055.454.031.7-.277 2.811-1.476 9.633-2.086 12.781-.259 1.333-.767 1.78-1.259 1.823-1.07.095-1.881-.682-2.917-1.338-1.621-1.025-2.537-1.664-4.11-2.665-1.819-1.156-.64-1.792.396-2.831.272-.272 4.984-4.41 5.075-4.785.011-.047.022-.222-.086-.314-.108-.092-.266-.06-.381-.036-.163.036-2.752 1.688-7.768 4.957-.735.487-1.4.724-1.997.712-.658-.014-1.923-.359-2.863-.654-1.153-.362-2.07-.553-1.99-1.168.041-.32.498-.647 1.37-.982z" fill="#fff"/></svg><svg width="68" height="68" viewBox="-2 -2 68 68" x="428" y="177" xmlns="http://www.w3.org/2000/svg"><g transform="scale(.57043)"><circle cx="56.099" cy="56.098" r="56.098" fill="#55acee"/><path d="M90.461 40.316a26.753 26.753 0 01-7.702 2.109 13.445 13.445 0 005.897-7.417 26.843 26.843 0 01-8.515 3.253 13.396 13.396 0 00-9.79-4.233c-7.404 0-13.409 6.005-13.409 13.409 0 1.051.119 2.074.349 3.056-11.144-.559-21.025-5.897-27.639-14.012a13.351 13.351 0 00-1.816 6.742c0 4.651 2.369 8.757 5.965 11.161a13.314 13.314 0 01-6.073-1.679l-.001.17c0 6.497 4.624 11.916 10.757 13.147a13.362 13.362 0 01-3.532.471c-.866 0-1.705-.083-2.523-.239 1.706 5.326 6.657 9.203 12.526 9.312a26.904 26.904 0 01-16.655 5.74c-1.08 0-2.15-.063-3.197-.188a37.929 37.929 0 0020.553 6.025c24.664 0 38.152-20.432 38.152-38.153 0-.581-.013-1.16-.039-1.734a27.192 27.192 0 006.692-6.94z" fill="#fff"/></g></svg><svg width="68" height="68" viewBox="-2 -2 68 68" x="394" y="280" xmlns="http://www.w3.org/2000/svg"><circle cx="56.098" cy="56.098" r="56.098" fill="#4d76a1" transform="scale(.57043)"/><path d="M30.791 46.035h2.512s.759-.083 1.146-.501c.356-.383.345-1.103.345-1.103s-.05-3.37 1.515-3.867c1.542-.488 3.522 3.258 5.62 4.698 1.587 1.09 2.793.851 2.793.851l5.612-.078s2.935-.181 1.543-2.489c-.114-.189-.81-1.707-4.172-4.827-3.518-3.266-3.047-2.738 1.191-8.387 2.581-3.44 3.613-5.54 3.291-6.44-.308-.857-2.206-.63-2.206-.63l-6.318.039s-.468-.064-.816.144c-.34.203-.558.678-.558.678s-1 2.662-2.333 4.926c-2.814 4.778-3.938 5.03-4.398 4.733-1.07-.691-.803-2.777-.803-4.26 0-4.629.702-6.56-1.367-7.059-.687-.166-1.192-.276-2.949-.293-2.254-.024-4.162.007-5.243.536-.718.352-1.273 1.136-.935 1.181.418.056 1.363.255 1.865.938.647.88.624 2.86.624 2.86s.372 5.449-.868 6.126c-.852.464-2.02-.484-4.529-4.818-1.285-2.22-2.255-4.674-2.255-4.674s-.187-.458-.52-.704c-.406-.297-.972-.392-.972-.392l-6.003.04s-.902.025-1.233.417c-.294.348-.023 1.07-.023 1.07s4.7 10.996 10.022 16.538c4.88 5.08 10.422 4.747 10.422 4.747z" clip-rule="evenodd" fill="#fff" fill-rule="evenodd"/></svg><svg width="36" height="36" fill="none" viewBox="-2 -2 36 36" x="72" y="414" xmlns="http://www.w3.org/2000/svg"><path d="M0 16C0 7.164 7.163 0 16 0s16 7.164 16 16c0 8.837-7.163 16-16 16S0 24.838 0 16z" fill="#4C6C91"/><path d="M16.837 21.251s.308-.033.466-.2c.144-.152.14-.44.14-.44s-.02-1.343.615-1.54c.626-.196 1.43 1.298 2.283 1.872.645.434 1.134.34 1.134.34l2.28-.032s1.192-.072.626-.992c-.046-.075-.33-.68-1.694-1.925-1.43-1.302-1.238-1.091.483-3.343 1.049-1.372 1.468-2.21 1.337-2.568-.125-.342-.896-.251-.896-.251l-2.566.015s-.19-.025-.331.058c-.138.08-.227.27-.227.27s-.406 1.061-.948 1.964c-1.143 1.904-1.6 2.005-1.786 1.887-.435-.276-.327-1.108-.327-1.698 0-1.846.286-2.616-.555-2.815-.278-.066-.484-.11-1.197-.117-.916-.01-1.69.003-2.13.214-.292.14-.517.453-.38.47.17.023.554.103.757.375.263.351.254 1.14.254 1.14s.151 2.172-.353 2.442c-.345.185-.82-.193-1.839-1.92-.522-.886-.916-1.864-.916-1.864s-.075-.183-.212-.281a1.059 1.059 0 00-.394-.156l-2.438.016s-.366.01-.5.166c-.12.139-.01.426-.01.426s1.91 4.385 4.071 6.595c1.983 2.025 4.233 1.892 4.233 1.892h1.02z" fill="#fff"/></svg><svg width="44" height="44" fill="none" viewBox="-2 -2 44 44" x="44" y="370" xmlns="http://www.w3.org/2000/svg"><path d="M0 20C0 8.954 8.954 0 20 0s20 8.954 20 20-8.954 20-20 20S0 31.046 0 20z" fill="#2B3D4F"/><path d="M20.079 26.95s.397-.042.6-.251c.187-.192.18-.553.18-.553s-.025-1.686.794-1.935c.807-.245 1.843 1.63 2.943 2.352.83.545 1.461.426 1.461.426l2.939-.04s1.537-.09.808-1.245c-.06-.095-.425-.855-2.184-2.417-1.844-1.634-1.596-1.37.623-4.198 1.351-1.722 1.891-2.774 1.722-3.223-.16-.43-1.154-.316-1.154-.316l-3.308.02s-.245-.033-.427.071c-.178.102-.293.34-.293.34s-.523 1.332-1.221 2.466c-1.473 2.39-2.062 2.517-2.303 2.37-.56-.348-.42-1.392-.42-2.133 0-2.318.368-3.284-.716-3.534-.36-.084-.624-.138-1.544-.147-1.18-.012-2.179.004-2.745.268-.377.176-.667.569-.49.592.219.027.714.127.976.469.34.441.328 1.43.328 1.43s.194 2.73-.456 3.068c-.445.232-1.056-.242-2.37-2.412-.673-1.11-1.18-2.34-1.18-2.34s-.098-.229-.274-.352c-.212-.15-.508-.196-.508-.196l-3.143.02s-.472.012-.645.209c-.154.174-.012.535-.012.535s2.46 5.505 5.247 8.28c2.556 2.542 5.457 2.376 5.457 2.376h1.315z" fill="#fff"/></svg><svg width="28" height="28" fill="none" stroke="#000" stroke-width="2" stroke-linecap="round" stroke-linejoin="round" class="eofeather eofeather-x" viewBox="-2 -2 28 28" x="168" y="450" xmlns="http://www.w3.org/2000/svg"><path d="M18 6L6 18M6 6l12 12"/></svg><svg width="28" height="28" fill="none" stroke="gray" stroke-width="2" stroke-linecap="round" stroke-linejoin="round" class="epfeather epfeather-x" viewBox="-2 -2 28 28" x="196" y="450" xmlns="http://www.w3.org/2000/svg"><path d="M18 6L6 18M6 6l12 12"/></svg><svg width="22" height="22" fill="none" viewBox="-2 -2 22 22" x="362" y="478" xmlns="http://www.w3.org/2000/svg"><path d="M17 1L1 17M1 1l16 16" stroke="#F54D2E" stroke-width="2" stroke-linecap="round" stroke-linejoin="round"/></svg><svg width="28" height="28" fill="none" stroke="#fff" stroke-width="2" stroke-linecap="round" stroke-linejoin="round" class="erfeather erfeather-x" viewBox="-2 -2 28 28" x="224" y="450" xmlns="http://www.w3.org/2000/svg"><path d="M18 6L6 18M6 6l12 12"/></svg><svg width="22" height="22" fill="none" viewBox="-2 -2 22 22" x="384" y="478" xmlns="http://www.w3.org/2000/svg"><path d="M17 1L1 17M1 1l16 16" stroke="#2B3D4F" stroke-width="2" stroke-linecap="round" stroke-linejoin="round"/></svg><svg width="31" height="30" fill="none" viewBox="-2 -2 31 30" x="290" y="232" xmlns="http://www.w3.org/2000/svg"><path stroke="#2B3D4F" stroke-width="4" d="M2.414 1.586l22.628 22.627m-.515-22.627L1.9 24.213"/></svg><svg width="31" height="30" fill="none" viewBox="-2 -2 31 30" x="321" y="232" xmlns="http://www.w3.org/2000/svg"><path stroke="#fff" stroke-width="4" d="M2.414 1.586l22.628 22.627m-.515-22.627L1.9 24.213"/></svg><svg width="42" height="42" fill="none" viewBox="-2 -2 42 42" x="168" y="370" xmlns="http://www.w3.org/2000/svg"><path d="M35 3L3 35M3 3l32 32" stroke="#fff" stroke-width="4" stroke-linecap="square"/></svg><svg width="44" height="44" fill="none" viewBox="-2 -2 44 44" x="88" y="370" xmlns="http://www.w3.org/2000/svg"><path d="M0 20C0 8.954 8.954 0 20 0s20 8.954 20 20-8.954 20-20 20S0 31.046 0 20z" fill="#2B3D4F"/><path d="M30.221 15.061a2.708 2.708 0 00-1.886-1.936c-1.663-.458-8.334-.458-8.334-.458s-6.672 0-8.335.458A2.708 2.708 0 009.78 15.06c-.446 1.709-.446 5.273-.446 5.273s0 3.564.446 5.272a2.709 2.709 0 001.886 1.937C13.329 28 20 28 20 28s6.67 0 8.334-.457a2.709 2.709 0 001.886-1.937c.446-1.708.446-5.272.446-5.272s0-3.564-.446-5.273z" fill="#fff"/><path d="M18 24v-6.667l5.333 3.334L18 24z" fill="#2B3D4F"/></svg><svg width="36" height="36" fill="none" viewBox="-2 -2 36 36" x="108" y="414" xmlns="http://www.w3.org/2000/svg"><path d="M0 16C0 7.163 7.163 0 16 0s16 7.163 16 16-7.163 16-16 16S0 24.837 0 16z" fill="#fff"/><path d="M24.177 12.05a2.167 2.167 0 00-1.51-1.55c-1.33-.366-6.667-.366-6.667-.366s-5.337 0-6.668.366a2.167 2.167 0 00-1.509 1.55c-.356 1.366-.356 4.217-.356 4.217s0 2.851.356 4.218a2.167 2.167 0 001.51 1.55C10.662 22.4 16 22.4 16 22.4s5.337 0 6.668-.367a2.167 2.167 0 001.509-1.549c.357-1.367.357-4.218.357-4.218s0-2.851-.357-4.218z" fill="#2B3D4F"/><path d="M14.4 19.2v-5.334l4.267 2.667-4.267 2.666z" fill="#fff"/></svg><svg width="36" height="36" fill="none" viewBox="-2 -2 36 36" x="144" y="414" xmlns="http://www.w3.org/2000/svg"><g opacity=".3"><path d="M0 16C0 7.163 7.163 0 16 0s16 7.163 16 16-7.163 16-16 16S0 24.837 0 16z" fill="#fff"/><path d="M24.177 12.05a2.167 2.167 0 00-1.51-1.55c-1.33-.366-6.667-.366-6.667-.366s-5.337 0-6.668.366a2.167 2.167 0 00-1.509 1.55c-.356 1.366-.356 4.217-.356 4.217s0 2.851.356 4.218a2.167 2.167 0 001.51 1.55C10.662 22.4 16 22.4 16 22.4s5.337 0 6.668-.367a2.167 2.167 0 001.509-1.549c.357-1.367.357-4.218.357-4.218s0-2.851-.357-4.218z" fill="#2B3D4F"/><path d="M14.4 19.2v-5.334l4.267 2.667-4.267 2.666z" fill="#fff"/></g></svg></svg>